<svg id="Layer_1" data-name="Layer 1" xmlns="http://www.w3.org/2000/svg" viewBox="0 0 180 80"><defs><style>.cls-1{fill:#236782;}.cls-2{fill:#75c6db;}.cls-3{fill:#a7a7a7;}.cls-4{fill:#aed136;}</style></defs><title>logo</title><path class="cls-1" d="M38.67,56.37c1,2.27,2.09,4.53,3.24,7,.75-1.3,1.46-2.36,2-3.51,1-2.14,1.86-4.37,2.89-6.51C49.86,47,53,40.6,56.06,34.23c1.69,3.48,3.4,7,5.08,10.43q4.36,9.06,8.69,18.11c.08.16.18.31.35.6.51-1,1-1.95,1.42-2.89,4-8.42,8.08-16.84,12.08-25.27a1.55,1.55,0,0,1,1.76-1.07c1.22.1,2.47,0,3.7,0,.26,0,.5.29.75.44a6,6,0,0,0-.65.88Q82.6,49.27,76,63c-1.93,4-3.82,8-5.73,12-.89-1.74-1.82-3.46-2.67-5.23q-5.52-11.48-11-23c-.12-.25-.26-.49-.48-.88-.24.43-.45.76-.62,1.12L42.42,74.39A4.93,4.93,0,0,1,42,75c-1-2-2-4-2.94-5.94q-4.76-9.93-9.49-19.86L23.64,36.78c-.41-.84-.76-1.71-1.14-2.57,1.61,0,3.23-.07,4.85,0a1.29,1.29,0,0,1,.89.63c1.39,2.81,2.72,5.64,4.08,8.46Q35.49,49.82,38.67,56.37Z"/><path class="cls-2" d="M70.25,75.07c1.91-4,3.8-8,5.73-12Q82.6,49.27,89.24,35.5a6,6,0,0,1,.65-.88c.59,1,1.24,2,1.75,3.05,2.43,5,4.83,10,7.24,15l4.83,10.12c.06.11.12.23.29.53l14.07-29.2c1.13,2.32,2.2,4.49,3.25,6.67q5.24,10.92,10.46,21.83a5.85,5.85,0,0,0,.38.63c-.33.73-.64,1.48-1,2.19-.59,1.17-1.22,2.32-1.83,3.48-.53-1-1.12-1.91-1.59-2.91-3.13-6.47-6.22-13-9.33-19.45-.09-.19-.2-.37-.37-.69l-13.88,29-.34.06c-4.6-9.63-9.21-19.25-13.92-29.1-.39.82-.68,1.47-1,2.1q-3,6.35-6.09,12.67c-2.21,4.61-4.39,9.22-6.61,13.82a1.31,1.31,0,0,1-.88.68C73.64,75.16,71.94,75.1,70.25,75.07Z"/><path class="cls-3" d="M129.33,69c.61-1.16,1.24-2.31,1.83-3.48.36-.71.67-1.46,1-2.19,1.72-3.55,3.47-7.09,5.18-10.65q4.24-8.82,8.46-17.65c.1-.21.23-.42.46-.81l14,29.24c.52-1,1-1.93,1.42-2.83q6.1-12.74,12.19-25.48a1.37,1.37,0,0,1,1.49-1c1.48.08,3,0,4.61,0l-19.69,41L146.23,45.86,132.1,75.32C131.11,73,130.22,71,129.33,69Z"/><path class="cls-4" d="M55.92,33.61c-1.88-4-3.76-8-5.67-11.95-.56-1.17-1.25-2.27-1.8-3.44-.46-1-.75-2-1.21-3-.68-1.4-1.48-2.74-2.16-4.14-.92-1.87-1.75-3.79-2.71-5.65a1.64,1.64,0,0,0-1.2-.76c-8.69,0-17.39,0-26.08,0a1.7,1.7,0,0,0-1.72.92c-.75,1.62-1.49,3.24-2.26,4.85C7.55,17.89,4,25.34.38,32.76a2.91,2.91,0,0,0,0,2.91c1.38,2.72,2.65,5.49,4,8.24,1.52,3.15,3.05,6.3,4.56,9.45s2.91,6,4.28,9a1.56,1.56,0,0,0,1.63,1.13c4.69,0,9.39,0,14.09,0,1.72,0,1.87.16,2.59,1.73,1.45,3.18,3,6.34,4.48,9.5.11.22.39.52.58.51,1.82,0,3.64-.14,5.45-.22-1-2-2-4-2.94-5.94q-4.76-9.93-9.49-19.86L23.64,36.78c-.41-.84-.76-1.71-1.14-2.57h0c-1.59,0-3.18,0-4.77-.05-1.05,0-.75.55-.51,1.05,1,2.1,2,4.18,3,6.27,2.3,4.78,4.61,9.54,6.86,14.34.93,2,.87,2-1.33,2-2.44,0-4.87,0-7.31,0a1.33,1.33,0,0,1-1.4-.85q-2.41-5.2-4.9-10.38-2.71-5.69-5.5-11.34a2.09,2.09,0,0,1,0-2.07c2.68-5.51,5.29-11,7.93-16.57.86-1.81,1.69-3.63,2.62-5.41a1.57,1.57,0,0,1,1.15-.66q9.6-.06,19.18,0a1.65,1.65,0,0,1,1.2.73c1.58,3.13,3.08,6.3,4.61,9.46,1.2,2.46,2.41,4.91,3.6,7.37.88,1.83,1.77,3.65,2.59,5.51a1.73,1.73,0,0,1-.07,1.3c-1.51,3.2-3.09,6.36-4.63,9.54-1.35,2.81-2.65,5.65-4,8.44-.61,1.22-1.39,2.34-2.09,3.51,1,2.27,2.09,4.53,3.24,7,.75-1.3,1.46-2.36,2-3.51,1-2.14,1.86-4.37,2.89-6.51C49.86,47,53,40.6,56.06,34.23A3.11,3.11,0,0,0,55.92,33.61Z"/></svg>