<?xml version="1.0" encoding="UTF-8" standalone="no"?>
<svg
   xmlns:dc="http://purl.org/dc/elements/1.1/"
   xmlns:cc="http://creativecommons.org/ns#"
   xmlns:rdf="http://www.w3.org/1999/02/22-rdf-syntax-ns#"
   xmlns:svg="http://www.w3.org/2000/svg"
   xmlns="http://www.w3.org/2000/svg"
   xmlns:xlink="http://www.w3.org/1999/xlink"
   xmlns:sodipodi="http://sodipodi.sourceforge.net/DTD/sodipodi-0.dtd"
   xmlns:inkscape="http://www.inkscape.org/namespaces/inkscape"
   id="Layer_1"
   data-name="Layer 1"
   viewBox="0 0 327.41 775.55"
   version="1.1"
   sodipodi:docname="Uncertain futures building graphic_221221_linked.svg"
   inkscape:version="0.92.4 (5da689c313, 2019-01-14)">
  <metadata
     id="metadata479">
    <rdf:RDF>
      <cc:Work
         rdf:about="">
        <dc:format>image/svg+xml</dc:format>
        <dc:type
           rdf:resource="http://purl.org/dc/dcmitype/StillImage" />
      </cc:Work>
    </rdf:RDF>
  </metadata>
  <sodipodi:namedview
     pagecolor="#ffffff"
     bordercolor="#666666"
     borderopacity="1"
     objecttolerance="10"
     gridtolerance="10"
     guidetolerance="10"
     inkscape:pageopacity="0"
     inkscape:pageshadow="2"
     inkscape:window-width="1920"
     inkscape:window-height="986"
     id="namedview477"
     showgrid="false"
     inkscape:zoom="2.3979635"
     inkscape:cx="131.45916"
     inkscape:cy="691.32537"
     inkscape:window-x="-11"
     inkscape:window-y="-11"
     inkscape:window-maximized="1"
     inkscape:current-layer="Layer_1" />
  <defs
     id="defs4">
    <style
       id="style2">.cls-1{fill:#686769;}.cls-2{fill:#8e8d8e;}.cls-3{fill:#424143;}.cls-4{fill:#5198a8;}.cls-5{fill:#73adb9;}.cls-6{fill:#fff;}.cls-7{fill:#ed3e3e;}.cls-8{fill:#b3b3b4;}</style>
  </defs>
  <path
     class="cls-1"
     d="M36.09,543.64,190.8,622.45l-4.42,139.71L27,673.26l9.09-129.62M29,531,18.67,677.77,194,775.55l5-157.92L29,531Z"
     transform="translate(-18.67)"
     id="path6" />
  <path
     class="cls-2"
     d="M199.22,452.62l115.17,50.73L197.7,608,46.53,531l152.69-78.38m-.26-8.86L29,531l170,86.6L329,501,199,443.76Z"
     transform="translate(-18.67)"
     id="path8" />
  <path
     class="cls-1"
     d="M56.59,617.42l-5-2.44v3.81l5.9,2.87V624L49,619.87V605.65l8.5,4.13v2.38l-5.89-2.87v3.39l5,2.45Z"
     transform="translate(-18.67)"
     id="path10" />
  <path
     class="cls-1"
     d="M63.55,617.65l2.38-3.74,3,1.47-3.7,5.25,3.8,9L66,628.16,63.55,622l-2.45,3.79-3-1.48L61.85,619l-3.7-8.85,3,1.46Z"
     transform="translate(-18.67)"
     id="path12" />
  <path
     class="cls-1"
     d="M73,626.55v5l-2.61-1.28V616.06l5,2.42a8.61,8.61,0,0,1,2.52,1.81,8,8,0,0,1,1.67,2.47,7,7,0,0,1,.59,2.75c0,1.39-.43,2.28-1.28,2.67s-2,.22-3.54-.52Zm0-2.38,2.34,1.14a1.87,1.87,0,0,0,1.59.23c.36-.19.54-.62.54-1.3a3.7,3.7,0,0,0-.55-2,3.61,3.61,0,0,0-1.52-1.4L73,619.71Z"
     transform="translate(-18.67)"
     id="path14" />
  <path
     class="cls-1"
     d="M84.5,634.81l5.56,2.71v2.35l-8.18-4V621.67L84.5,623Z"
     transform="translate(-18.67)"
     id="path16" />
  <path
     class="cls-1"
     d="M101.44,638.62a7.27,7.27,0,0,1-.66,3.36,2.71,2.71,0,0,1-1.9,1.52,4.43,4.43,0,0,1-2.83-.52,8.72,8.72,0,0,1-2.82-2.22,10.51,10.51,0,0,1-1.92-3.36,12.1,12.1,0,0,1-.69-4v-.7a7.2,7.2,0,0,1,.68-3.37,2.77,2.77,0,0,1,1.91-1.52,4.46,4.46,0,0,1,2.82.52,8.82,8.82,0,0,1,2.83,2.23,10.67,10.67,0,0,1,1.91,3.38,12,12,0,0,1,.67,4Zm-2.65-1.93a8.71,8.71,0,0,0-.72-3.75,4.31,4.31,0,0,0-2-2.16c-.88-.42-1.55-.37-2,.16a4.69,4.69,0,0,0-.73,3v.7a8.75,8.75,0,0,0,.72,3.72,4.38,4.38,0,0,0,2.06,2.21c.88.42,1.55.37,2-.17a4.77,4.77,0,0,0,.72-3Z"
     transform="translate(-18.67)"
     id="path18" />
  <path
     class="cls-1"
     d="M108.05,643.42l-2.09-1v5.21l-2.61-1.27V632.12l4.72,2.29a8.88,8.88,0,0,1,3.47,2.82,6.31,6.31,0,0,1,1.22,3.77,3.37,3.37,0,0,1-.56,2.15,2.14,2.14,0,0,1-1.71.72l2.75,7.14v.14l-2.81-1.37ZM106,640l2.12,1a1.67,1.67,0,0,0,1.52.18,1.34,1.34,0,0,0,.55-1.28,3.31,3.31,0,0,0-.52-1.83,3.64,3.64,0,0,0-1.56-1.34l-2.11-1Z"
     transform="translate(-18.67)"
     id="path20" />
  <path
     class="cls-1"
     d="M121.93,652.45l-4.59-2.24-.88,2.51-2.78-1.36,4.73-11.91,2.43,1.18,4.75,16.53-2.78-1.35ZM118,648.18l3.18,1.55-1.6-6.1Z"
     transform="translate(-18.67)"
     id="path22" />
  <path
     class="cls-1"
     d="M135.3,650l-3.9-1.9V660l-2.61-1.28V646.87L125,645v-2.37l10.35,5Z"
     transform="translate(-18.67)"
     id="path24" />
  <path
     class="cls-1"
     d="M147,660.78a7.27,7.27,0,0,1-.66,3.36,2.71,2.71,0,0,1-1.9,1.52,4.44,4.44,0,0,1-2.83-.52,8.72,8.72,0,0,1-2.82-2.22,10.9,10.9,0,0,1-1.92-3.36,12.1,12.1,0,0,1-.69-4v-.7a7.2,7.2,0,0,1,.68-3.37,2.77,2.77,0,0,1,1.91-1.52,4.46,4.46,0,0,1,2.82.52,8.82,8.82,0,0,1,2.83,2.23,10.67,10.67,0,0,1,1.91,3.38,12.07,12.07,0,0,1,.67,4Zm-2.65-1.93a8.87,8.87,0,0,0-.71-3.75,4.37,4.37,0,0,0-2.05-2.16c-.88-.42-1.55-.37-2,.16a4.67,4.67,0,0,0-.73,3v.7a8.75,8.75,0,0,0,.72,3.72,4.38,4.38,0,0,0,2.06,2.21c.88.43,1.55.37,2-.17a4.8,4.8,0,0,0,.71-3Z"
     transform="translate(-18.67)"
     id="path26" />
  <path
     class="cls-1"
     d="M153.59,665.58l-2.08-1v5.21l-2.62-1.28V654.28l4.72,2.29a8.88,8.88,0,0,1,3.47,2.82,6.31,6.31,0,0,1,1.22,3.77,3.37,3.37,0,0,1-.56,2.15,2.13,2.13,0,0,1-1.7.72l2.74,7.14v.14l-2.8-1.37Zm-2.08-3.39,2.11,1a1.69,1.69,0,0,0,1.53.18,1.34,1.34,0,0,0,.54-1.28,3.45,3.45,0,0,0-.51-1.84,3.73,3.73,0,0,0-1.57-1.33l-2.1-1Z"
     transform="translate(-18.67)"
     id="path28" />
  <path
     class="cls-1"
     d="M164.26,668.16,166.9,663l2.86,1.39-4.17,7v5.15l-2.66-1.29v-5.16l-4.17-11.09,2.87,1.4Z"
     transform="translate(-18.67)"
     id="path30" />
  <path
     class="cls-1"
     d="M63.84,635.89l3.26,11.9,3.25-8.73,3.44,1.67V655l-2.63-1.28v-3.88l.26-6.58L68,652.13l-1.79-.87L62.77,639l.27,6.83v3.88l-2.62-1.27V634.23Z"
     transform="translate(-18.67)"
     id="path32" />
  <path
     class="cls-1"
     d="M86.51,654.36a7.27,7.27,0,0,1-.66,3.36,2.7,2.7,0,0,1-1.9,1.51,4.42,4.42,0,0,1-2.83-.51,9,9,0,0,1-2.82-2.22,10.84,10.84,0,0,1-1.92-3.37,12,12,0,0,1-.69-4v-.7a7.17,7.17,0,0,1,.68-3.37,2.74,2.74,0,0,1,1.91-1.52,4.4,4.4,0,0,1,2.82.52,8.68,8.68,0,0,1,2.83,2.23,10.56,10.56,0,0,1,1.91,3.38,12,12,0,0,1,.67,4Zm-2.65-1.94a8.79,8.79,0,0,0-.71-3.74,4.37,4.37,0,0,0-2.05-2.16c-.88-.43-1.55-.38-2,.16a4.6,4.6,0,0,0-.72,3v.69a8.77,8.77,0,0,0,.71,3.73,4.35,4.35,0,0,0,2.06,2.2c.88.43,1.55.37,2-.17a4.74,4.74,0,0,0,.71-3Z"
     transform="translate(-18.67)"
     id="path34" />
  <path
     class="cls-1"
     d="M88.42,662.07V647.85l3.91,1.9a10,10,0,0,1,3,2.31,11.29,11.29,0,0,1,2.06,3.4,10.85,10.85,0,0,1,.74,3.91V660a6,6,0,0,1-.73,3.17,2.8,2.8,0,0,1-2.05,1.39,5.15,5.15,0,0,1-3-.59ZM91,651.5V661l1.26.62c1,.5,1.81.5,2.35,0a3.79,3.79,0,0,0,.83-2.81v-.75a7.67,7.67,0,0,0-.81-3.68,5.07,5.07,0,0,0-2.34-2.26Z"
     transform="translate(-18.67)"
     id="path36" />
  <path
     class="cls-1"
     d="M107.68,665.28l-5-2.44v3.8l5.9,2.87v2.36L100,667.72V653.5l8.5,4.14V660l-5.88-2.86v3.39l5,2.45Z"
     transform="translate(-18.67)"
     id="path38" />
  <path
     class="cls-1"
     d="M112.71,671.54l5.56,2.7v2.35l-8.18-4V658.4l2.62,1.27Z"
     transform="translate(-18.67)"
     id="path40" />
  <path
     class="cls-1"
     d="M122.39,676.25l5.55,2.7v2.35l-8.17-4V663.11l2.62,1.27Z"
     transform="translate(-18.67)"
     id="path42" />
  <path
     class="cls-1"
     d="M132.23,683.39l-2.62-1.27V667.9l2.62,1.27Z"
     transform="translate(-18.67)"
     id="path44" />
  <path
     class="cls-1"
     d="M145,689.6l-2.62-1.28-5.1-11.83v9.35l-2.61-1.27V670.35l2.61,1.28,5.11,11.85v-9.37l2.61,1.27Z"
     transform="translate(-18.67)"
     id="path46" />
  <path
     class="cls-1"
     d="M157.33,693.81a2.65,2.65,0,0,1-2,.49,8.17,8.17,0,0,1-2.86-.87,9.1,9.1,0,0,1-2.89-2.21,10.08,10.08,0,0,1-1.92-3.27,11.76,11.76,0,0,1-.7-4v-1a7.59,7.59,0,0,1,.64-3.38,2.62,2.62,0,0,1,1.85-1.48,4.61,4.61,0,0,1,2.84.55,9.08,9.08,0,0,1,3.53,2.93,8.79,8.79,0,0,1,1.51,4.25l-2.55-1.24a4.78,4.78,0,0,0-.77-2.17,4.24,4.24,0,0,0-1.64-1.36c-.89-.44-1.57-.39-2,.13a4.69,4.69,0,0,0-.7,3v.9a8.41,8.41,0,0,0,.75,3.75,4.82,4.82,0,0,0,2.23,2.23c1,.48,1.68.58,2.1.32V689l-2.38-1.16V685.7l5,2.43Z"
     transform="translate(-18.67)"
     id="path48" />
  <path
     class="cls-3"
     d="M322.8,517.3l14.83,127.48L202.52,758l4.33-136.65,116-104M329,501,199,617.63l-5,157.92L346.07,648.14,329,501Z"
     transform="translate(-18.67)"
     id="path50" />
  <path
     class="cls-3"
     d="M239.3,653.72c0-.55-.15-.86-.44-.91a3.35,3.35,0,0,0-1.57.36,7.19,7.19,0,0,1-1.79.5c-1.2.13-1.8-.56-1.8-2a7.14,7.14,0,0,1,.48-2.46,10.65,10.65,0,0,1,1.39-2.55,11.5,11.5,0,0,1,2-2.19,4.78,4.78,0,0,1,2-1.11,1.26,1.26,0,0,1,1.37.42,2.92,2.92,0,0,1,.49,1.88l-2.18,1.79q0-1-.45-1.14c-.31-.1-.74.07-1.29.53a5.17,5.17,0,0,0-1.24,1.47,3.26,3.26,0,0,0-.44,1.57c0,.46.17.7.52.73a3.69,3.69,0,0,0,1.53-.38,3.53,3.53,0,0,1,2.7-.38c.57.28.85,1,.85,2.08a7.71,7.71,0,0,1-1,3.75,11.44,11.44,0,0,1-2.79,3.36,5.55,5.55,0,0,1-2.22,1.23,1.43,1.43,0,0,1-1.53-.38,3,3,0,0,1-.53-2l2.19-1.8c0,1.57.69,1.78,2.09.62a4.88,4.88,0,0,0,1.21-1.42A3.21,3.21,0,0,0,239.3,653.72Z"
     transform="translate(-18.67)"
     id="path52" />
  <path
     class="cls-3"
     d="M251.26,642.83a11.88,11.88,0,0,1-1.26,4.66,11.68,11.68,0,0,1-3,3.79c-1.35,1.12-2.42,1.39-3.2.8s-1.16-2-1.16-4.09v-.87a15.85,15.85,0,0,1,.53-4,14,14,0,0,1,1.54-3.67,10.71,10.71,0,0,1,2.32-2.75c1.22-1,2.2-1.38,2.95-1.12s1.17,1.14,1.29,2.63l-2.18,1.8c-.05-.87-.24-1.38-.57-1.52s-.82.06-1.49.61a5.46,5.46,0,0,0-1.63,2.4,11.21,11.21,0,0,0-.55,3.71v1.08a5.41,5.41,0,0,0,.51,2.94c.35.42.9.32,1.64-.29a5.62,5.62,0,0,0,1.51-1.87,6.22,6.22,0,0,0,.57-2.39Z"
     transform="translate(-18.67)"
     id="path54" />
  <path
     class="cls-3"
     d="M259.05,635l-4.18,3.45v3.81l4.9-4.05v2.35l-7.08,5.86V632.17l7.07-5.85v2.38l-4.89,4v3.39l4.18-3.46Z"
     transform="translate(-18.67)"
     id="path56" />
  <path
     class="cls-3"
     d="M269.65,632.37l-2.18,1.8-4.24-5.85v9.35l-2.18,1.81V625.26l2.18-1.8,4.25,5.86V620l2.17-1.8Z"
     transform="translate(-18.67)"
     id="path58" />
  <path
     class="cls-3"
     d="M277.52,622.94l-3.82,3.15-.72,3.53-2.32,1.92,3.94-17.47,2-1.67,4,11-2.32,1.91Zm-3.23.29,2.64-2.18-1.33-4.22Z"
     transform="translate(-18.67)"
     id="path60" />
  <path
     class="cls-3"
     d="M285.47,614.09l-1.73,1.44v5.2l-2.18,1.8V608.31l3.93-3.24c1.25-1,2.21-1.46,2.89-1.27s1,1,1,2.33a8.68,8.68,0,0,1-.46,2.82,11.65,11.65,0,0,1-1.42,2.72l2.28,3.92v.14l-2.34,1.93Zm-1.73-.94,1.75-1.45a4.73,4.73,0,0,0,1.28-1.61,4.36,4.36,0,0,0,.45-1.92c0-.67-.15-1.08-.43-1.23s-.72,0-1.3.5l-1.75,1.44Z"
     transform="translate(-18.67)"
     id="path62" />
  <path
     class="cls-3"
     d="M293.37,612.77l-2.18,1.81V600.36l2.18-1.8Z"
     transform="translate(-18.67)"
     id="path64" />
  <path
     class="cls-3"
     d="M304.07,597.14a15.7,15.7,0,0,1-.55,4.14,14.94,14.94,0,0,1-1.58,3.75,10.78,10.78,0,0,1-2.36,2.8,3.86,3.86,0,0,1-2.34,1.09,1.76,1.76,0,0,1-1.6-1.1,7.08,7.08,0,0,1-.57-3.16V604a15.5,15.5,0,0,1,.56-4.16,14.45,14.45,0,0,1,1.59-3.77,10.7,10.7,0,0,1,2.35-2.79,3.88,3.88,0,0,1,2.35-1.09,1.75,1.75,0,0,1,1.59,1.14,7.44,7.44,0,0,1,.56,3.22Zm-2.21,1.18a4.77,4.77,0,0,0-.59-2.9c-.4-.45-1-.37-1.7.24a5.68,5.68,0,0,0-1.69,2.54,11.55,11.55,0,0,0-.61,3.87v.69a4.81,4.81,0,0,0,.6,2.89c.4.47,1,.4,1.71-.22a5.74,5.74,0,0,0,1.69-2.55,11.47,11.47,0,0,0,.59-3.86Z"
     transform="translate(-18.67)"
     id="path66" />
  <path
     class="cls-3"
     d="M217.62,698.36V684.14l3.25-2.68a4.57,4.57,0,0,1,2.5-1.22,1.79,1.79,0,0,1,1.72,1,6.08,6.08,0,0,1,.61,3v.66a14.2,14.2,0,0,1-.6,4,15.79,15.79,0,0,1-1.71,3.81,12.44,12.44,0,0,1-2.49,2.92Zm2.18-13.64v9.49l1-.87a6.81,6.81,0,0,0,2-2.74,10.26,10.26,0,0,0,.69-3.78v-.75c0-1.45-.23-2.36-.67-2.74s-1.1-.21-2,.5Z"
     transform="translate(-18.67)"
     id="path68" />
  <path
     class="cls-3"
     d="M233.65,679l-4.18,3.45v3.81l4.9-4.05v2.35l-7.08,5.86V676.16l7.07-5.85v2.38l-4.89,4v3.39l4.18-3.46Z"
     transform="translate(-18.67)"
     id="path70" />
  <path
     class="cls-3"
     d="M239.56,676.71,242,664l2.43-2-3.68,17.26-2.27,1.88L234.76,670l2.42-2Z"
     transform="translate(-18.67)"
     id="path72" />
  <path
     class="cls-3"
     d="M251.74,664l-4.19,3.46v3.81l4.91-4.06v2.35l-7.08,5.86V661.21l7.07-5.84v2.37l-4.9,4v3.39l4.19-3.45Z"
     transform="translate(-18.67)"
     id="path74" />
  <path
     class="cls-3"
     d="M255.92,664.36l4.62-3.82v2.36l-6.8,5.62V654.3l2.18-1.8Z"
     transform="translate(-18.67)"
     id="path76" />
  <path
     class="cls-3"
     d="M270,648.28a15.7,15.7,0,0,1-.55,4.14,14.58,14.58,0,0,1-1.58,3.75,10.75,10.75,0,0,1-2.35,2.8,3.88,3.88,0,0,1-2.35,1.09,1.74,1.74,0,0,1-1.6-1.1,7.19,7.19,0,0,1-.57-3.16v-.7a15.91,15.91,0,0,1,.56-4.16,15.16,15.16,0,0,1,1.59-3.77,10.89,10.89,0,0,1,2.35-2.79,3.9,3.9,0,0,1,2.35-1.09,1.74,1.74,0,0,1,1.59,1.14,7.3,7.3,0,0,1,.56,3.22Zm-2.2,1.18a4.68,4.68,0,0,0-.6-2.9c-.4-.45-1-.37-1.7.24a5.77,5.77,0,0,0-1.69,2.54,11.28,11.28,0,0,0-.6,3.87v.69a4.9,4.9,0,0,0,.59,2.89c.4.47,1,.4,1.72-.22a5.65,5.65,0,0,0,1.68-2.55,11.72,11.72,0,0,0,.6-3.86Z"
     transform="translate(-18.67)"
     id="path78" />
  <path
     class="cls-3"
     d="M273.77,647v5l-2.17,1.8V639.54l4.12-3.4a4.82,4.82,0,0,1,2.1-1.15,1.3,1.3,0,0,1,1.39.52,3.54,3.54,0,0,1,.48,2,9.13,9.13,0,0,1-1.06,4.18,11.38,11.38,0,0,1-2.94,3.63Zm0-2.37,2-1.61a4.85,4.85,0,0,0,1.32-1.63,4.38,4.38,0,0,0,.45-1.94c0-.7-.15-1.14-.45-1.31s-.73-.05-1.27.38l-2,1.65Z"
     transform="translate(-18.67)"
     id="path80" />
  <path
     class="cls-3"
     d="M284,629.27l2.72,8.06,2.7-12.54,2.86-2.36v14.21l-2.18,1.81v-3.89l.22-6.89-2.86,13L286,641.86l-2.85-8.23.22,6.52V644l-2.18,1.8V631.62Z"
     transform="translate(-18.67)"
     id="path82" />
  <path
     class="cls-3"
     d="M300.58,623.65l-4.18,3.46v3.81l4.9-4.06v2.36l-7.08,5.85V620.85l7.07-5.84v2.37l-4.89,4v3.39l4.18-3.46Z"
     transform="translate(-18.67)"
     id="path84" />
  <path
     class="cls-3"
     d="M311.18,621.06l-2.18,1.8L304.76,617v9.36l-2.18,1.8V613.94l2.18-1.8L309,618v-9.38l2.17-1.79Z"
     transform="translate(-18.67)"
     id="path86" />
  <path
     class="cls-3"
     d="M321,601.06l-3.24,2.68v11.84l-2.18,1.8V605.54l-3.19,2.64v-2.37l8.61-7.12Z"
     transform="translate(-18.67)"
     id="path88" />
  <path
     class="cls-2"
     d="M116.13,519.21a1,1,0,0,0,.45-1.13,5.79,5.79,0,0,0-1.24-1.65,11.45,11.45,0,0,1-1.5-1.82,2.46,2.46,0,0,1,.48-3.5,4.91,4.91,0,0,1,2.21-1,7.47,7.47,0,0,1,2.83,0,9.59,9.59,0,0,1,2.94,1,5.79,5.79,0,0,1,2.1,1.7,2.47,2.47,0,0,1,.52,1.92,3.08,3.08,0,0,1-1.16,1.82L121,515.1a1.33,1.33,0,0,0,.6-1.3,2.07,2.07,0,0,0-1.19-1.2,4,4,0,0,0-1.91-.52,2.23,2.23,0,0,0-1.48.48.87.87,0,0,0-.25,1.11,5.7,5.7,0,0,0,1.23,1.58,6.11,6.11,0,0,1,2,3,2.55,2.55,0,0,1-1.09,2.38,5.35,5.35,0,0,1-3.55,1.2,9.13,9.13,0,0,1-4.32-1.16,6.78,6.78,0,0,1-2.32-1.86,2.77,2.77,0,0,1-.64-2.09,3.17,3.17,0,0,1,1.22-1.93l2.74,1.45c-1.22,1-1,2,.79,2.92a4,4,0,0,0,1.85.52A2.14,2.14,0,0,0,116.13,519.21Z"
     transform="translate(-18.67)"
     id="path90" />
  <path
     class="cls-2"
     d="M137,521.59l-4.06-2.14-9.2,7.74L121,525.75l9.2-7.74-4-2.12,1.85-1.55,10.8,5.7Z"
     transform="translate(-18.67)"
     id="path92" />
  <path
     class="cls-2"
     d="M138.31,529.35l-2.18-1.15-4,3.4-2.73-1.44,11-9.3,4.93,2.6c1.57.83,2.48,1.71,2.75,2.65s-.13,1.85-1.19,2.75a6,6,0,0,1-2.47,1.27,7.56,7.56,0,0,1-3,.08l-1.65,5.31-.11.09-2.93-1.55Zm-.33-2.7,2.2,1.16a3.71,3.71,0,0,0,2,.47,3,3,0,0,0,1.77-.71,1.51,1.51,0,0,0,.69-1.32c-.06-.43-.45-.85-1.18-1.24l-2.2-1.15Z"
     transform="translate(-18.67)"
     id="path94" />
  <path
     class="cls-2"
     d="M154,536.62l-5.25-2.77-3,2.49,6.15,3.25-1.83,1.54-8.88-4.69,11-9.29,8.87,4.68-1.84,1.55-6.14-3.24-2.63,2.21,5.24,2.77Z"
     transform="translate(-18.67)"
     id="path96" />
  <path
     class="cls-2"
     d="M161.52,543.17a1,1,0,0,0,.44-1.12,5.35,5.35,0,0,0-1.24-1.65,11.18,11.18,0,0,1-1.49-1.83,2.43,2.43,0,0,1,.48-3.49,4.83,4.83,0,0,1,2.2-1,7.52,7.52,0,0,1,2.84,0,9.86,9.86,0,0,1,2.94,1,6,6,0,0,1,2.1,1.7,2.48,2.48,0,0,1,.51,1.93,3,3,0,0,1-1.16,1.81l-2.73-1.44a1.31,1.31,0,0,0,.61-1.29c-.1-.44-.5-.84-1.19-1.21a4,4,0,0,0-1.91-.52,2.21,2.21,0,0,0-1.49.49.87.87,0,0,0-.25,1.1,5.58,5.58,0,0,0,1.24,1.58,6,6,0,0,1,1.94,3,2.51,2.51,0,0,1-1.09,2.37,5.29,5.29,0,0,1-3.55,1.21,9.18,9.18,0,0,1-4.32-1.17,6.88,6.88,0,0,1-2.32-1.86,2.81,2.81,0,0,1-.64-2.09,3.14,3.14,0,0,1,1.23-1.93l2.74,1.45c-1.22,1-1,2,.79,2.92a4,4,0,0,0,1.85.52A2.17,2.17,0,0,0,161.52,543.17Z"
     transform="translate(-18.67)"
     id="path98" />
  <path
     class="cls-2"
     d="M173,549.22a1,1,0,0,0,.44-1.12,5.28,5.28,0,0,0-1.23-1.65,11.34,11.34,0,0,1-1.5-1.83,2.43,2.43,0,0,1,.48-3.49,4.94,4.94,0,0,1,2.2-1,7.53,7.53,0,0,1,2.84,0,9.86,9.86,0,0,1,2.94,1,5.89,5.89,0,0,1,2.1,1.7,2.49,2.49,0,0,1,.52,1.93,3.11,3.11,0,0,1-1.16,1.82l-2.73-1.45a1.31,1.31,0,0,0,.6-1.29c-.1-.44-.5-.84-1.19-1.21a4.1,4.1,0,0,0-1.91-.52,2.19,2.19,0,0,0-1.48.49.86.86,0,0,0-.26,1.1,6.16,6.16,0,0,0,1.24,1.59,6.06,6.06,0,0,1,2,3,2.53,2.53,0,0,1-1.09,2.37,5.31,5.31,0,0,1-3.55,1.21,9.19,9.19,0,0,1-4.33-1.17,6.86,6.86,0,0,1-2.32-1.86,2.75,2.75,0,0,1-.63-2.09,3.15,3.15,0,0,1,1.22-1.93l2.74,1.45c-1.22,1-1,2,.79,2.92a4.18,4.18,0,0,0,1.85.53A2.19,2.19,0,0,0,173,549.22Z"
     transform="translate(-18.67)"
     id="path100" />
  <path
     class="cls-2"
     d="M103.67,528.46l-4.06-2.15-9.21,7.75-2.73-1.45,9.21-7.74-4-2.11,1.84-1.55,10.8,5.7Z"
     transform="translate(-18.67)"
     id="path102" />
  <path
     class="cls-2"
     d="M108.78,537.21l-5.24-2.77-3,2.49,6.16,3.24-1.83,1.54L96,537l11-9.29,8.87,4.68L114.09,534,108,530.72l-2.63,2.22,5.25,2.77Z"
     transform="translate(-18.67)"
     id="path104" />
  <path
     class="cls-2"
     d="M116.28,543.75a1,1,0,0,0,.45-1.12,5.53,5.53,0,0,0-1.24-1.65,11.92,11.92,0,0,1-1.5-1.82,2.45,2.45,0,0,1,.49-3.5,4.87,4.87,0,0,1,2.2-1,7.46,7.46,0,0,1,2.83,0,10.15,10.15,0,0,1,2.94,1,5.89,5.89,0,0,1,2.1,1.7,2.49,2.49,0,0,1,.52,1.93,3.11,3.11,0,0,1-1.16,1.82l-2.73-1.45a1.29,1.29,0,0,0,.6-1.29c-.1-.44-.5-.84-1.19-1.21a4.07,4.07,0,0,0-1.91-.52,2.19,2.19,0,0,0-1.48.49.86.86,0,0,0-.25,1.1,5.86,5.86,0,0,0,1.23,1.59,6,6,0,0,1,1.95,3,2.53,2.53,0,0,1-1.09,2.37,5.31,5.31,0,0,1-3.55,1.21,9.28,9.28,0,0,1-4.32-1.16,6.69,6.69,0,0,1-2.32-1.87,2.76,2.76,0,0,1-.64-2.09,3.2,3.2,0,0,1,1.22-1.93l2.74,1.45c-1.22,1-1,2,.79,2.92a4.06,4.06,0,0,0,1.86.53A2.13,2.13,0,0,0,116.28,543.75Z"
     transform="translate(-18.67)"
     id="path106" />
  <path
     class="cls-2"
     d="M137.15,546.14,133.09,544l-9.2,7.75-2.73-1.45,9.2-7.74-4-2.11,1.84-1.55,10.8,5.7Z"
     transform="translate(-18.67)"
     id="path108" />
  <path
     class="cls-2"
     d="M132.41,556.24l-2.73-1.45,11-9.29,2.73,1.44Z"
     transform="translate(-18.67)"
     id="path110" />
  <path
     class="cls-2"
     d="M145.72,563.26,143,561.82l1.95-8.92L137.68,559l-2.74-1.44L146,548.28l2.73,1.44-1.95,8.94,7.28-6.13,2.72,1.44Z"
     transform="translate(-18.67)"
     id="path112" />
  <path
     class="cls-2"
     d="M160,568.88a8.88,8.88,0,0,1-3.22-.13,12.94,12.94,0,0,1-3.39-1.24,5.64,5.64,0,0,1-2.4-2.12,3,3,0,0,1-.18-2.59,6.62,6.62,0,0,1,2.07-2.73l.75-.64a11.46,11.46,0,0,1,3.54-2,9.14,9.14,0,0,1,3.78-.54,8.72,8.72,0,0,1,3.59,1c1.58.83,2.49,1.74,2.75,2.73a3.32,3.32,0,0,1-1.15,3.13l-2.66-1.4a1.84,1.84,0,0,0,.59-1.6,2.3,2.3,0,0,0-1.28-1.27,4.28,4.28,0,0,0-3-.39,8.06,8.06,0,0,0-3.34,1.8l-.7.59a4.32,4.32,0,0,0-1.83,2.63c-.07.77.41,1.43,1.43,2a5,5,0,0,0,2.74.7l1.9-1.6-2.48-1.32,1.68-1.41,5.21,2.76Z"
     transform="translate(-18.67)"
     id="path114" />
  <polygon
     class="cls-4"
     points="310.29 501.83 304.03 507.45 304.34 365.83 312.29 361.39 310.29 501.83"
     id="polygon116" />
  <polygon
     class="cls-5"
     points="295.72 504.15 304.03 507.45 304.34 365.83 296.38 361.39 295.72 504.15"
     id="polygon118" />
  <polygon
     class="cls-4"
     points="188.45 610.31 180.29 617.63 167.15 468.38 175.03 462.47 188.45 610.31"
     id="polygon120" />
  <polygon
     class="cls-5"
     points="171.54 613.17 180.29 617.63 167.15 468.38 159.2 463.03 171.54 613.17"
     id="polygon122" />
  <polygon
     class="cls-4"
     points="27.86 530.97 18.3 535.11 30.25 395.83 38.2 391.39 27.86 530.97"
     id="polygon124" />
  <polygon
     class="cls-5"
     points="10.29 531.03 18.3 535.11 30.25 395.83 22.29 391.52 10.29 531.03"
     id="polygon126" />
  <polyline
     class="cls-6"
     points="167.15 468.38 22.29 391.52 162.29 292.06 312.29 371.72"
     id="polyline128" />
  <a
     id="a1292">
    <polygon
       id="polygon130"
       points="22.29,80.08 159.79,0 312.29,66.33 167.15,153.86 "
       class="cls-7"
       style="fill:#ed3e3e" />
  </a>
  <path
     class="cls-6"
     d="M153.09,40.36l-2.11-1-4.58,2.47-2.66-1.27,12.51-6.75L161,36.09c1.52.73,2.37,1.46,2.53,2.21s-.35,1.45-1.55,2.1a7.86,7.86,0,0,1-2.7.88,10.21,10.21,0,0,1-3.1-.09l-2.32,4.09-.12.06L150.93,44Zm0-2.13,2.15,1a4.61,4.61,0,0,0,2,.47,4,4,0,0,0,1.91-.47c.59-.32.88-.65.87-1s-.37-.69-1.08-1l-2.13-1Z"
     transform="translate(-18.67)"
     id="path132" />
  <path
     class="cls-6"
     d="M171.87,47.89A14.34,14.34,0,0,1,168,49.32a13.37,13.37,0,0,1-4.07.24,10.45,10.45,0,0,1-3.63-1,4.31,4.31,0,0,1-2.11-1.76,2,2,0,0,1,.18-2.08,6.79,6.79,0,0,1,2.49-2.06l.62-.33a14.3,14.3,0,0,1,3.94-1.43,13.53,13.53,0,0,1,4.09-.24,10.78,10.78,0,0,1,3.62,1,4.27,4.27,0,0,1,2.11,1.77,2,2,0,0,1-.22,2.09,6.92,6.92,0,0,1-2.55,2.07Zm-2.12-1.58c1.31-.71,2.06-1.36,2.26-2s-.15-1.11-1-1.54a5.52,5.52,0,0,0-3.07-.44,10.39,10.39,0,0,0-3.7,1.25l-.6.33a4.58,4.58,0,0,0-2.25,1.95c-.22.61.12,1.13,1,1.56a5.44,5.44,0,0,0,3.07.43,10.62,10.62,0,0,0,3.7-1.26Z"
     transform="translate(-18.67)"
     id="path134" />
  <path
     class="cls-6"
     d="M167.83,52l12.51-6.76,4.51,2.16c1.56.74,2.46,1.46,2.69,2.16s-.22,1.35-1.35,2a5.94,5.94,0,0,1-2.1.64,7.33,7.33,0,0,1-2.38-.09,1.23,1.23,0,0,1,.59,1.27,2.17,2.17,0,0,1-1.22,1.23,7.5,7.5,0,0,1-3.91.91,11,11,0,0,1-4.33-1.1Zm8.1-1.68-3.37,1.82,2.27,1.09a4.69,4.69,0,0,0,1.9.46,3.39,3.39,0,0,0,1.72-.4c1.15-.61,1.12-1.22-.08-1.81Zm1.82-1,2,.93a3.82,3.82,0,0,0,3.56.12c.57-.3.81-.61.72-.9s-.51-.62-1.24-1l-1.86-.88Z"
     transform="translate(-18.67)"
     id="path136" />
  <path
     class="cls-6"
     d="M201.66,55.44l-8.24,4.45A9.53,9.53,0,0,1,188.86,61,10.92,10.92,0,0,1,184,59.93c-1.5-.71-2.31-1.49-2.42-2.33s.5-1.63,1.83-2.37l8.33-4.49L194.44,52l-8.26,4.46c-.82.44-1.21.86-1.18,1.25s.4.77,1.11,1.11a4.86,4.86,0,0,0,4.56-.15l8.33-4.5Z"
     transform="translate(-18.67)"
     id="path138" />
  <path
     class="cls-6"
     d="M201.3,64.64c.48-.26.68-.55.59-.86a4.15,4.15,0,0,0-1.09-1.35,8.66,8.66,0,0,1-1.33-1.5c-.7-1.12-.4-2,.9-2.72a6.43,6.43,0,0,1,2.4-.7,10.13,10.13,0,0,1,2.93.14,11.86,11.86,0,0,1,2.92.93,5.39,5.39,0,0,1,2,1.44,1.53,1.53,0,0,1,.3,1.54,2.87,2.87,0,0,1-1.41,1.37l-2.65-1.27c.57-.31.83-.64.77-1s-.41-.68-1.09-1a4.72,4.72,0,0,0-1.91-.5,3,3,0,0,0-1.59.31c-.41.22-.54.5-.39.85a4.26,4.26,0,0,0,1.09,1.3,4.18,4.18,0,0,1,1.66,2.46c0,.68-.43,1.29-1.4,1.81a7.11,7.11,0,0,1-3.81.77,11,11,0,0,1-4.33-1.12A6.1,6.1,0,0,1,193.65,64a1.67,1.67,0,0,1-.41-1.66,2.88,2.88,0,0,1,1.49-1.46l2.66,1.27q-2.07,1.11.48,2.33a4.88,4.88,0,0,0,1.85.5A2.88,2.88,0,0,0,201.3,64.64Z"
     transform="translate(-18.67)"
     id="path140" />
  <path
     class="cls-6"
     d="M222.6,67.54l-3.95-1.88-10.42,5.62L205.58,70,216,64.39l-3.89-1.85,2.09-1.13,10.49,5Z"
     transform="translate(-18.67)"
     id="path142" />
  <path
     class="cls-6"
     d="M227.53,77.85l-4.66-2.21-3.46,1-2.82-1.35,17.3-4.46L236.35,72l-7.68,9-2.82-1.35Zm-1.85-3,3.22,1.54,3.06-3.3Z"
     transform="translate(-18.67)"
     id="path144" />
  <path
     class="cls-6"
     d="M240.36,86.58l-2.66-1.26,3.06-6.91-8.23,4.45-2.65-1.27,12.5-6.75L245,76.1,242,83l8.25-4.45,2.64,1.26Z"
     transform="translate(-18.67)"
     id="path146" />
  <path
     class="cls-6"
     d="M242.68,87.69l12.5-6.75,4,1.89a4.94,4.94,0,0,1,2.29,1.85,2,2,0,0,1,0,2.13,5.72,5.72,0,0,1-2.37,2l-.57.31a12.64,12.64,0,0,1-3.84,1.32,14,14,0,0,1-4.19.15,12.09,12.09,0,0,1-3.79-1Zm13.07-4.36-8.35,4.51,1.28.61a6.63,6.63,0,0,0,3.37.6,9.42,9.42,0,0,0,3.67-1.13l.66-.35c1.27-.69,2-1.34,2.08-1.95s-.36-1.17-1.4-1.67Z"
     transform="translate(-18.67)"
     id="path148" />
  <path
     class="cls-6"
     d="M145.51,59.34l-4.65-2.22-3.46,1-2.83-1.34,17.3-4.47,2.47,1.18-7.69,9-2.82-1.34Zm-1.85-3,3.22,1.53,3.06-3.29Z"
     transform="translate(-18.67)"
     id="path150" />
  <path
     class="cls-6"
     d="M147.86,63.08l12.5-6.75,4,1.89a5,5,0,0,1,2.3,1.85,2,2,0,0,1,0,2.13,5.68,5.68,0,0,1-2.36,2l-.58.31a12.64,12.64,0,0,1-3.84,1.32,14,14,0,0,1-4.19.15,12.17,12.17,0,0,1-3.79-1Zm13.07-4.36-8.35,4.5,1.29.62a6.61,6.61,0,0,0,3.37.6,9.38,9.38,0,0,0,3.66-1.13l.66-.35c1.28-.69,2-1.34,2.08-2s-.35-1.17-1.4-1.67Z"
     transform="translate(-18.67)"
     id="path152" />
  <path
     class="cls-6"
     d="M169.49,70.76l-4.65-2.21-3.46,1-2.83-1.35,17.31-4.46,2.46,1.17-7.68,9.05-2.83-1.35Zm-1.85-3,3.22,1.54,3.07-3.3Z"
     transform="translate(-18.67)"
     id="path154" />
  <path
     class="cls-6"
     d="M178.9,73.39l-4.4,2.38-2.66-1.27,12.51-6.75,5,2.39a5.34,5.34,0,0,1,2,1.5,1.51,1.51,0,0,1,.23,1.6,3.37,3.37,0,0,1-1.56,1.45,8.39,8.39,0,0,1-4.2.94,11.35,11.35,0,0,1-4.65-1.13ZM181,72.26l2.37,1.13a4.9,4.9,0,0,0,2.09.51,4,4,0,0,0,1.93-.48c.61-.33.92-.69.92-1.07s-.31-.73-1-1l-2.44-1.16Z"
     transform="translate(-18.67)"
     id="path156" />
  <path
     class="cls-6"
     d="M203.65,79.07l-3.94-1.88-10.42,5.62-2.66-1.26,10.42-5.63-3.89-1.85,2.08-1.13,10.5,5Z"
     transform="translate(-18.67)"
     id="path158" />
  <path
     class="cls-6"
     d="M197.57,86.76l-2.65-1.27,12.5-6.75L210.08,80Z"
     transform="translate(-18.67)"
     id="path160" />
  <path
     class="cls-6"
     d="M207.9,88.53l12.32-3.69,3,1.41-17,4.61-2.77-1.32,8-8.88,3,1.41Z"
     transform="translate(-18.67)"
     id="path162" />
  <path
     class="cls-6"
     d="M225.06,94.34,220,91.92l-3.35,1.8,6,2.85-2.07,1.12-8.64-4.11,12.5-6.75,8.62,4.1-2.08,1.13-6-2.84-3,1.61,5.1,2.42Z"
     transform="translate(-18.67)"
     id="path164" />
  <path
     class="cls-6"
     d="M112.63,66.85l12.51-6.75,4,1.89a5.06,5.06,0,0,1,2.29,1.85,2,2,0,0,1,0,2.14A5.69,5.69,0,0,1,129,68l-.57.31a12.74,12.74,0,0,1-3.84,1.32,14.39,14.39,0,0,1-4.19.14,11.83,11.83,0,0,1-3.79-1Zm13.08-4.36L117.36,67l1.28.61a6.43,6.43,0,0,0,3.37.6,9.4,9.4,0,0,0,3.67-1.12l.66-.36c1.27-.68,2-1.33,2.08-2s-.36-1.16-1.4-1.66Z"
     transform="translate(-18.67)"
     id="path166" />
  <path
     class="cls-6"
     d="M137.59,73.23l-5.1-2.42-3.35,1.8,6,2.85-2.07,1.12-8.64-4.11,12.5-6.75,8.62,4.1L143.46,71l-6-2.84-3,1.61,5.1,2.42Z"
     transform="translate(-18.67)"
     id="path168" />
  <path
     class="cls-6"
     d="M148.9,79.89a10.66,10.66,0,0,1-4.72,1,11.39,11.39,0,0,1-4.81-1.12q-2.48-1.17-2.28-2.73c.13-1,1.14-2.06,3-3.07l.76-.42a14.65,14.65,0,0,1,3.83-1.4,13.15,13.15,0,0,1,4-.25,10.52,10.52,0,0,1,3.57,1c1.48.7,2.3,1.48,2.43,2.33s-.42,1.69-1.68,2.51l-2.65-1.26c.74-.47,1.09-.9,1.06-1.28s-.46-.78-1.28-1.16a5.17,5.17,0,0,0-2.91-.45,10.3,10.3,0,0,0-3.54,1.22l-.94.51c-1.35.73-2.13,1.36-2.33,1.9s.15,1,1.06,1.46a5.51,5.51,0,0,0,2.38.58,5.65,5.65,0,0,0,2.38-.58Z"
     transform="translate(-18.67)"
     id="path170" />
  <path
     class="cls-6"
     d="M149.3,84.32l-2.66-1.27,12.51-6.75,2.65,1.27Z"
     transform="translate(-18.67)"
     id="path172" />
  <path
     class="cls-6"
     d="M161.73,86.9c.48-.26.68-.55.58-.85a3.86,3.86,0,0,0-1.08-1.36,8.66,8.66,0,0,1-1.33-1.5c-.7-1.11-.4-2,.9-2.72a6.38,6.38,0,0,1,2.4-.7,10.13,10.13,0,0,1,2.93.14,12,12,0,0,1,2.92.93,5.26,5.26,0,0,1,2,1.44,1.53,1.53,0,0,1,.31,1.54,2.83,2.83,0,0,1-1.41,1.37l-2.65-1.27c.57-.31.83-.64.77-1s-.41-.69-1.09-1a4.8,4.8,0,0,0-1.91-.5,2.93,2.93,0,0,0-1.59.31c-.41.22-.54.5-.39.85a4.24,4.24,0,0,0,1.09,1.31,4.13,4.13,0,0,1,1.66,2.45c0,.68-.43,1.29-1.4,1.81a7.15,7.15,0,0,1-3.82.77,11.08,11.08,0,0,1-4.33-1.12,6.05,6.05,0,0,1-2.18-1.58,1.67,1.67,0,0,1-.41-1.66,2.89,2.89,0,0,1,1.48-1.46l2.67,1.27c-1.38.75-1.22,1.52.48,2.33a4.88,4.88,0,0,0,1.85.5A2.9,2.9,0,0,0,161.73,86.9Z"
     transform="translate(-18.67)"
     id="path174" />
  <path
     class="cls-6"
     d="M165.73,92.14l-2.66-1.26,12.51-6.75,2.65,1.26Z"
     transform="translate(-18.67)"
     id="path176" />
  <path
     class="cls-6"
     d="M184.75,95.14a14.38,14.38,0,0,1-3.92,1.42,13.68,13.68,0,0,1-4.07.25,10.9,10.9,0,0,1-3.63-1A4.37,4.37,0,0,1,171,94.08a2,2,0,0,1,.19-2.08,6.61,6.61,0,0,1,2.49-2l.62-.34a14.51,14.51,0,0,1,3.94-1.43,14.19,14.19,0,0,1,4.09-.24,10.72,10.72,0,0,1,3.61,1,4.31,4.31,0,0,1,2.12,1.77,2,2,0,0,1-.22,2.09,7.07,7.07,0,0,1-2.56,2.08Zm-2.13-1.59c1.31-.71,2.07-1.36,2.27-2s-.16-1.11-1-1.54a5.65,5.65,0,0,0-3.08-.44,10.61,10.61,0,0,0-3.69,1.25l-.61.33a4.63,4.63,0,0,0-2.25,2c-.22.61.13,1.13,1,1.57a5.6,5.6,0,0,0,3.07.43A10.58,10.58,0,0,0,182,93.88Z"
     transform="translate(-18.67)"
     id="path178" />
  <path
     class="cls-6"
     d="M191.19,104.27,188.53,103l3.06-6.91-8.23,4.44-2.65-1.26,12.5-6.75,2.66,1.26-3.07,6.92,8.25-4.45,2.64,1.26Z"
     transform="translate(-18.67)"
     id="path180" />
  <path
     class="cls-6"
     d="M203.47,106.79c.49-.26.68-.55.59-.86a3.8,3.8,0,0,0-1.09-1.35,8.72,8.72,0,0,1-1.33-1.51c-.7-1.11-.39-2,.91-2.72a6.51,6.51,0,0,1,2.39-.69,10.11,10.11,0,0,1,2.93.13,11.74,11.74,0,0,1,2.92.94,5.41,5.41,0,0,1,2,1.43,1.53,1.53,0,0,1,.31,1.54,2.79,2.79,0,0,1-1.41,1.37L209,103.81q.86-.47.78-1c-.06-.35-.42-.68-1.09-1a5,5,0,0,0-1.92-.51,3.06,3.06,0,0,0-1.59.31c-.4.22-.53.51-.38.86a4.19,4.19,0,0,0,1.08,1.3,4.16,4.16,0,0,1,1.67,2.46c0,.68-.43,1.28-1.41,1.81a7.19,7.19,0,0,1-3.81.77A11.26,11.26,0,0,1,198,107.7a6.17,6.17,0,0,1-2.18-1.58,1.72,1.72,0,0,1-.42-1.67A2.9,2.9,0,0,1,196.9,103l2.66,1.26c-1.38.75-1.21,1.53.48,2.34a4.93,4.93,0,0,0,1.86.5A3,3,0,0,0,203.47,106.79Z"
     transform="translate(-18.67)"
     id="path182" />
  <polygon
     class="cls-6"
     points="193.6 482.55 270.23 422.84 282.41 487.68 209.59 551.86 193.6 482.55"
     id="polygon184" />
  <path
     class="cls-4"
     d="M223,483.22l3.46,8.29,2-12.41,2.86-2.17,1,14.28-2.19,1.66-.27-3.9-.27-6.91-2.09,12.81L226,496l-3.6-8.47.69,6.56.28,3.91-2.18,1.65-1-14.28Z"
     transform="translate(-18.67)"
     id="path186" />
  <path
     class="cls-4"
     d="M241.21,469.4l.67,9.41a9.25,9.25,0,0,1-.82,4.53,9.35,9.35,0,0,1-2.87,3.62c-1.24.94-2.25,1.24-3,.91s-1.24-1.26-1.37-2.79l-.68-9.52,2.18-1.65.67,9.42c.07.94.28,1.49.65,1.67s.83,0,1.42-.41a4.41,4.41,0,0,0,1.68-4l-.68-9.5Z"
     transform="translate(-18.67)"
     id="path188" />
  <path
     class="cls-4"
     d="M246,478.31l4.63-3.52.17,2.37L244,482.33l-1-14.28,2.18-1.66Z"
     transform="translate(-18.67)"
     id="path190" />
  <path
     class="cls-4"
     d="M257.69,459.4l-3.24,2.46.85,11.89-2.18,1.66-.85-11.9-3.19,2.43-.17-2.38,8.61-6.55Z"
     transform="translate(-18.67)"
     id="path192" />
  <path
     class="cls-4"
     d="M262.1,468.59l-2.18,1.65-1-14.28,2.18-1.65Z"
     transform="translate(-18.67)"
     id="path194" />
  <path
     class="cls-4"
     d="M265.94,460.37l.36,5-2.18,1.65-1-14.28,4.12-3.13a4.47,4.47,0,0,1,2.14-1,1.6,1.6,0,0,1,1.51.61,3.73,3.73,0,0,1,.66,2.1,8,8,0,0,1-.82,4.12,9.74,9.74,0,0,1-2.86,3.45Zm-.17-2.39,1.94-1.48A3.94,3.94,0,0,0,269,455a3.75,3.75,0,0,0,.34-1.91,1.62,1.62,0,0,0-.57-1.35c-.34-.2-.78-.1-1.32.29l-2,1.52Z"
     transform="translate(-18.67)"
     id="path196" />
  <path
     class="cls-4"
     d="M275.72,455.75l4.63-3.52.17,2.36-6.81,5.17-1-14.27,2.18-1.66Z"
     transform="translate(-18.67)"
     id="path198" />
  <path
     class="cls-4"
     d="M287.69,442.62l-4.19,3.18.27,3.83,4.92-3.73.16,2.36-7.08,5.38-1-14.27,7.07-5.38.17,2.39-4.89,3.71.24,3.41,4.18-3.18Z"
     transform="translate(-18.67)"
     id="path200" />
  <path
     class="cls-4"
     d="M220.54,516.87l.36,5-2.18,1.66-1-14.28,4.12-3.14a4.57,4.57,0,0,1,2.14-1,1.61,1.61,0,0,1,1.51.62,3.75,3.75,0,0,1,.66,2.09,7.94,7.94,0,0,1-.83,4.12,9.37,9.37,0,0,1-2.86,3.45Zm-.17-2.38,1.95-1.48a4.18,4.18,0,0,0,1.28-1.55,3.8,3.8,0,0,0,.34-1.92,1.6,1.6,0,0,0-.58-1.35c-.33-.19-.77-.1-1.31.3l-2,1.52Z"
     transform="translate(-18.67)"
     id="path202" />
  <path
     class="cls-4"
     d="M230.33,512.25l4.63-3.52.16,2.37-6.8,5.17-1-14.28,2.18-1.66Z"
     transform="translate(-18.67)"
     id="path204" />
  <path
     class="cls-4"
     d="M242.27,502.57l-3.82,2.9-.52,3.49-2.31,1.76,2.92-17.27,2-1.53,5,11.27L243.21,505Zm-3.4.07,2.64-2-1.71-4.33Z"
     transform="translate(-18.67)"
     id="path206" />
  <path
     class="cls-4"
     d="M253.38,482.17l.67,9.41a9.25,9.25,0,0,1-.82,4.53,9.35,9.35,0,0,1-2.87,3.62c-1.23.94-2.25,1.24-3,.91s-1.24-1.26-1.37-2.8l-.67-9.51,2.17-1.65.68,9.42c.06.94.28,1.49.64,1.67s.84,0,1.42-.41a4.36,4.36,0,0,0,1.68-4l-.68-9.5Z"
     transform="translate(-18.67)"
     id="path208" />
  <path
     class="cls-4"
     d="M261.4,487.18c0-.55-.21-.87-.53-.94a3.41,3.41,0,0,0-1.63.25,7.33,7.33,0,0,1-1.86.38c-1.27,0-1.95-.69-2.06-2.17a6.41,6.41,0,0,1,.34-2.43,9.24,9.24,0,0,1,1.28-2.47,9.74,9.74,0,0,1,2-2.05,4.41,4.41,0,0,1,2.06-1,1.57,1.57,0,0,1,1.48.52,3.13,3.13,0,0,1,.66,1.92L261,480.86q-.07-1-.57-1.17c-.33-.14-.77,0-1.32.43a4.1,4.1,0,0,0-1.21,1.4,3,3,0,0,0-.36,1.53q0,.7.6.78a3.77,3.77,0,0,0,1.6-.28,3.84,3.84,0,0,1,2.84-.19,2.39,2.39,0,0,1,1,2.14,6.85,6.85,0,0,1-.84,3.7,9.36,9.36,0,0,1-2.72,3.18,5,5,0,0,1-2.26,1.08,1.72,1.72,0,0,1-1.65-.49,3.3,3.3,0,0,1-.7-2l2.19-1.66c.11,1.58.86,1.83,2.26.77a4.13,4.13,0,0,0,1.18-1.34A2.77,2.77,0,0,0,261.4,487.18Z"
     transform="translate(-18.67)"
     id="path210" />
  <path
     class="cls-4"
     d="M267.65,486.39,265.47,488l-1-14.28,2.18-1.65Z"
     transform="translate(-18.67)"
     id="path212" />
  <path
     class="cls-4"
     d="M269.66,484.85l-1-14.27,3.7-2.82c1.28-1,2.28-1.38,3-1.22s1.11.88,1.21,2.16a5.76,5.76,0,0,1-.27,2.15,6.54,6.54,0,0,1-1,2,1.2,1.2,0,0,1,1.36.13,2.43,2.43,0,0,1,.61,1.69,7.3,7.3,0,0,1-.75,3.86,9.14,9.14,0,0,1-2.69,3.18Zm1.59-10,1.62-1.22a3.46,3.46,0,0,0,1.52-3c-.05-.65-.22-1-.52-1.08s-.75.12-1.35.58L271,471.3Zm.15,2.08.28,3.86,1.86-1.42a3.85,3.85,0,0,0,1.17-1.41,3.37,3.37,0,0,0,.33-1.7c-.09-1.31-.64-1.59-1.64-.85Z"
     transform="translate(-18.67)"
     id="path214" />
  <path
     class="cls-4"
     d="M281.17,473.62l4.62-3.51.17,2.36-6.8,5.17-1-14.28,2.18-1.65Z"
     transform="translate(-18.67)"
     id="path216" />
  <path
     class="cls-4"
     d="M293.13,460.5,289,463.68l.27,3.82,4.91-3.73.17,2.37-7.09,5.38-1-14.27,7.08-5.38.17,2.38-4.9,3.72.24,3.41L293,458.2Z"
     transform="translate(-18.67)"
     id="path218" />
  <path
     class="cls-4"
     d="M232.62,528.87l-4.18,3.18.41,5.83-2.18,1.66-1-14.28,6.88-5.23.17,2.38L228,526l.27,3.68,4.18-3.18Z"
     transform="translate(-18.67)"
     id="path220" />
  <path
     class="cls-4"
     d="M241.81,513l.67,9.4a9.48,9.48,0,0,1-3.69,8.15c-1.24.94-2.25,1.24-3,.91s-1.24-1.26-1.37-2.79l-.68-9.52,2.18-1.65.67,9.42c.07.94.28,1.49.65,1.67s.83,0,1.42-.41a4.4,4.4,0,0,0,1.68-4l-.68-9.5Z"
     transform="translate(-18.67)"
     id="path222" />
  <path
     class="cls-4"
     d="M251.72,508l-3.24,2.47.85,11.89L247.15,524l-.84-11.9-3.2,2.43-.17-2.38,8.61-6.55Z"
     transform="translate(-18.67)"
     id="path224" />
  <path
     class="cls-4"
     d="M260.8,498.56l.67,9.4a9.48,9.48,0,0,1-3.69,8.15c-1.24.94-2.25,1.24-3,.91s-1.24-1.26-1.37-2.79l-.68-9.52,2.18-1.65.68,9.42c.06.94.28,1.49.64,1.67s.83,0,1.42-.4a4.38,4.38,0,0,0,1.68-4l-.68-9.5Z"
     transform="translate(-18.67)"
     id="path226" />
  <path
     class="cls-4"
     d="M267.15,503.28l-1.74,1.31.37,5.23-2.18,1.66-1-14.28,3.93-3c1.24-.94,2.23-1.3,3-1.06s1.14,1,1.24,2.41a7.83,7.83,0,0,1-.29,2.79,9.56,9.56,0,0,1-1.31,2.64l2.7,4.09v.14L269.5,507Zm-1.91-1.07,1.76-1.33a3.94,3.94,0,0,0,1.23-1.53,3.9,3.9,0,0,0,.34-1.9q-.07-1-.54-1.26c-.31-.17-.76,0-1.34.41l-1.75,1.33Z"
     transform="translate(-18.67)"
     id="path228" />
  <path
     class="cls-4"
     d="M279,493.25l-4.19,3.17.28,3.83,4.91-3.73.17,2.36-7.09,5.39-1-14.28,7.07-5.38.17,2.39-4.89,3.72.24,3.4,4.18-3.18Z"
     transform="translate(-18.67)"
     id="path230" />
  <path
     class="cls-4"
     d="M286.68,490c0-.56-.22-.87-.53-.95a3.55,3.55,0,0,0-1.63.25,7.88,7.88,0,0,1-1.87.39c-1.26,0-1.94-.69-2-2.18a6.41,6.41,0,0,1,.34-2.43,9.11,9.11,0,0,1,1.28-2.47,10,10,0,0,1,2-2.05,4.53,4.53,0,0,1,2-1,1.58,1.58,0,0,1,1.49.52,3.15,3.15,0,0,1,.66,1.92l-2.18,1.66c-.05-.66-.24-1.05-.57-1.18s-.77,0-1.32.43a4.09,4.09,0,0,0-1.21,1.4,2.79,2.79,0,0,0-.36,1.54c0,.46.23.72.6.77a3.71,3.71,0,0,0,1.59-.28,3.8,3.8,0,0,1,2.85-.18,2.35,2.35,0,0,1,1,2.14A6.71,6.71,0,0,1,288,492a9.47,9.47,0,0,1-2.72,3.18,5.18,5.18,0,0,1-2.26,1.09,1.77,1.77,0,0,1-1.65-.49,3.33,3.33,0,0,1-.7-2l2.19-1.66q.17,2.37,2.26.78a4.39,4.39,0,0,0,1.18-1.35A2.74,2.74,0,0,0,286.68,490Z"
     transform="translate(-18.67)"
     id="path232" />
  <a
     id="a5010"
     xlink:href="/theory/value-of-information/"
     target="_top">
    <polygon
       id="polygon234"
       points="167.15,363.44 167.15,258.69 22.29,184.87 22.29,292.06 "
       class="cls-2"
       style="fill:#8e8d8e" />
  </a>
  <a
     id="a5001"
     xlink:href="/theory/uncertainty-delegation/"
     target="_top">
    <polygon
       id="polygon236"
       points="167.15,258.69 312.29,171.16 312.29,276.1 167.15,363.44 "
       class="cls-1"
       style="fill:#686769" />
  </a>
  <path
     class="cls-6"
     d="M78.67,253.42l2.85-9.2,2.89,1.51L80,257.65l-2.7-1.41L73,239.73l2.88,1.51Z"
     transform="translate(-18.67)"
     id="path238" />
  <path
     class="cls-6"
     d="M92.05,261l-4.55-2.38-.86,2.47-2.76-1.44,4.68-11.76L91,249.18l4.71,16.69-2.76-1.45Zm-3.85-4.39,3.15,1.65-1.58-6.15Z"
     transform="translate(-18.67)"
     id="path240" />
  <path
     class="cls-6"
     d="M99.44,265.49l5.51,2.89v2.35l-8.1-4.25V252.26l2.59,1.36Z"
     transform="translate(-18.67)"
     id="path242" />
  <path
     class="cls-6"
     d="M115.74,262.18v9.37c0,1.55-.43,2.56-1.29,3s-2,.29-3.53-.5a9.16,9.16,0,0,1-3.49-3.15,7.93,7.93,0,0,1-1.33-4.32v-9.47l2.59,1.36v9.38a4.29,4.29,0,0,0,.6,2.35,4.22,4.22,0,0,0,1.63,1.5c1.46.76,2.2.29,2.23-1.43v-9.47Z"
     transform="translate(-18.67)"
     id="path244" />
  <path
     class="cls-6"
     d="M125.44,275.32l-5-2.61v3.81l5.84,3.07v2.35l-8.43-4.43V263.3l8.42,4.41v2.38L120.46,267v3.39l5,2.61Z"
     transform="translate(-18.67)"
     id="path246" />
  <path
     class="cls-6"
     d="M142.56,283.69a7.22,7.22,0,0,1-.65,3.33,2.61,2.61,0,0,1-1.88,1.46,4.5,4.5,0,0,1-2.81-.61,9.1,9.1,0,0,1-2.79-2.32,11.07,11.07,0,0,1-1.9-3.42,12.3,12.3,0,0,1-.68-4v-.7a7.07,7.07,0,0,1,.67-3.35,2.65,2.65,0,0,1,1.89-1.46,4.47,4.47,0,0,1,2.8.62,9,9,0,0,1,2.79,2.32,10.84,10.84,0,0,1,1.89,3.44,12.27,12.27,0,0,1,.67,4Zm-2.62-2a9,9,0,0,0-.71-3.77,4.58,4.58,0,0,0-2-2.22c-.87-.46-1.54-.43-2,.09a4.59,4.59,0,0,0-.71,3v.69a9,9,0,0,0,.71,3.75,4.55,4.55,0,0,0,2,2.27c.87.46,1.54.42,2-.1a4.79,4.79,0,0,0,.71-3Z"
     transform="translate(-18.67)"
     id="path248" />
  <path
     class="cls-6"
     d="M152,289.62,147,287v5.81l-2.59-1.36V277.24l8.19,4.3v2.37L147,281v3.67l5,2.61Z"
     transform="translate(-18.67)"
     id="path250" />
  <path
     class="cls-6"
     d="M57.82,269l-2.59-1.36V253.42l2.59,1.36Z"
     transform="translate(-18.67)"
     id="path252" />
  <path
     class="cls-6"
     d="M70.45,275.63l-2.59-1.36-5-12v9.36l-2.59-1.36V256l2.59,1.36,5.06,12v-9.38l2.58,1.36Z"
     transform="translate(-18.67)"
     id="path254" />
  <path
     class="cls-6"
     d="M80.28,275l-5-2.61v5.81l-2.59-1.36V262.6l8.19,4.3v2.37l-5.6-2.94V270l5,2.61Z"
     transform="translate(-18.67)"
     id="path256" />
  <path
     class="cls-6"
     d="M92.74,280.54a7.29,7.29,0,0,1-.65,3.34,2.6,2.6,0,0,1-1.88,1.45,4.43,4.43,0,0,1-2.81-.61,9.21,9.21,0,0,1-2.79-2.31,11.34,11.34,0,0,1-1.9-3.43,12.24,12.24,0,0,1-.68-4v-.71A7,7,0,0,1,82.7,271a2.62,2.62,0,0,1,1.89-1.46,4.46,4.46,0,0,1,2.8.61,9.13,9.13,0,0,1,2.79,2.32,10.89,10.89,0,0,1,1.89,3.45,12.22,12.22,0,0,1,.67,4Zm-2.62-2a9,9,0,0,0-.71-3.77,4.56,4.56,0,0,0-2-2.23c-.87-.45-1.54-.42-2,.09a4.6,4.6,0,0,0-.71,3v.7a9.13,9.13,0,0,0,.7,3.75,4.7,4.7,0,0,0,2,2.27c.87.45,1.54.42,2-.11a4.76,4.76,0,0,0,.71-3Z"
     transform="translate(-18.67)"
     id="path258" />
  <path
     class="cls-6"
     d="M99.28,285.55l-2.06-1.08v5.2l-2.59-1.35V274.1l4.67,2.45a9.25,9.25,0,0,1,3.44,2.93,6.55,6.55,0,0,1,1.21,3.81,3.33,3.33,0,0,1-.56,2.13,2,2,0,0,1-1.69.66l2.72,7.24v.14L101.64,292Zm-2.06-3.45,2.09,1.09a1.67,1.67,0,0,0,1.51.24c.36-.19.54-.61.54-1.27a3.51,3.51,0,0,0-.51-1.85,3.78,3.78,0,0,0-1.55-1.39l-2.08-1.09Z"
     transform="translate(-18.67)"
     id="path260" />
  <path
     class="cls-6"
     d="M109.31,281.8l3.23,12,3.21-8.63,3.41,1.79v14.22l-2.61-1.37v-3.88l.26-6.58-3.39,8.82-1.78-.94-3.39-12.36.26,6.83v3.89l-2.59-1.36V280Z"
     transform="translate(-18.67)"
     id="path262" />
  <path
     class="cls-6"
     d="M128.52,303.17,124,300.79l-.87,2.47-2.75-1.44L125,290.06l2.4,1.26L132.15,308l-2.76-1.45Zm-3.84-4.39,3.14,1.65-1.58-6.15Z"
     transform="translate(-18.67)"
     id="path264" />
  <path
     class="cls-6"
     d="M141.76,301.2l-3.86-2V311l-2.59-1.36V297.82l-3.8-2v-2.38l10.25,5.38Z"
     transform="translate(-18.67)"
     id="path266" />
  <path
     class="cls-6"
     d="M146,315.27l-2.59-1.36V299.69l2.59,1.36Z"
     transform="translate(-18.67)"
     id="path268" />
  <path
     class="cls-6"
     d="M158.73,315.17a7.08,7.08,0,0,1-.66,3.33,2.59,2.59,0,0,1-1.88,1.46,4.39,4.39,0,0,1-2.8-.61A8.88,8.88,0,0,1,150.6,317a11,11,0,0,1-1.91-3.42,12.57,12.57,0,0,1-.68-4v-.7a7,7,0,0,1,.67-3.34,2.62,2.62,0,0,1,1.89-1.46,4.46,4.46,0,0,1,2.8.61,8.88,8.88,0,0,1,2.79,2.32,11.11,11.11,0,0,1,1.9,3.45,12.43,12.43,0,0,1,.67,4Zm-2.63-2a9,9,0,0,0-.71-3.76,4.56,4.56,0,0,0-2-2.23q-1.31-.67-2,.09a4.54,4.54,0,0,0-.72,3v.69a8.9,8.9,0,0,0,.71,3.75,4.58,4.58,0,0,0,2,2.28c.87.45,1.53.42,2-.11a4.72,4.72,0,0,0,.71-3Z"
     transform="translate(-18.67)"
     id="path270" />
  <path
     class="cls-6"
     d="M170.84,328.31,168.25,327l-5.05-12v9.35l-2.59-1.36V308.72l2.59,1.37,5.05,12v-9.37l2.59,1.35Z"
     transform="translate(-18.67)"
     id="path272" />
  <path
     class="cls-6"
     d="M199.27,304.78l.21-14.22,3.64-2.43a5.07,5.07,0,0,1,2.77-1,2.16,2.16,0,0,1,1.89,1.12,5.74,5.74,0,0,1,.64,3.08V292a12.4,12.4,0,0,1-.73,4,13.6,13.6,0,0,1-2,3.67,11.42,11.42,0,0,1-2.8,2.72Zm2.61-13.47-.14,9.49,1.18-.79a6.24,6.24,0,0,0,2.2-2.58,9.09,9.09,0,0,0,.82-3.73V293c0-1.44-.21-2.37-.7-2.78s-1.21-.31-2.17.34Z"
     transform="translate(-18.67)"
     id="path274" />
  <path
     class="cls-6"
     d="M217.28,286.65l-4.67,3.13-.06,3.8,5.49-3.66,0,2.35-7.92,5.29.21-14.21,7.91-5.29,0,2.38-5.48,3.65-.05,3.39,4.68-3.12Z"
     transform="translate(-18.67)"
     id="path276" />
  <path
     class="cls-6"
     d="M221.91,287.34l5.17-3.46,0,2.36-7.61,5.08.22-14.22,2.43-1.63Z"
     transform="translate(-18.67)"
     id="path278" />
  <path
     class="cls-6"
     d="M235.65,274.39,231,277.52l-.06,3.8,5.49-3.66,0,2.35-7.93,5.29.21-14.21,7.91-5.28,0,2.37-5.47,3.65-.06,3.39,4.68-3.12Z"
     transform="translate(-18.67)"
     id="path280" />
  <path
     class="cls-6"
     d="M247.18,271a11.63,11.63,0,0,1-1.88,2.71,14.91,14.91,0,0,1-2.67,2.3,4.83,4.83,0,0,1-2.68,1,2,2,0,0,1-1.75-1.15,6.55,6.55,0,0,1-.6-3.17l0-1a14.21,14.21,0,0,1,.65-4.08,12.29,12.29,0,0,1,1.76-3.53,10.5,10.5,0,0,1,2.65-2.59q2.1-1.39,3.27-1c.78.28,1.23,1.14,1.35,2.57l-2.37,1.59c-.1-.74-.33-1.18-.69-1.31a1.85,1.85,0,0,0-1.53.46,5.32,5.32,0,0,0-1.91,2.38,10,10,0,0,0-.7,3.78l0,.91q0,2.24.66,2.91c.46.44,1.14.36,2-.24a5.85,5.85,0,0,0,2-2l0-2.45-2.22,1.48,0-2.16,4.66-3.11Z"
     transform="translate(-18.67)"
     id="path282" />
  <path
     class="cls-6"
     d="M255.85,264.11,251.58,267l-.86,3.47-2.59,1.73L252.74,255,255,253.5l4.22,11.26-2.59,1.73Zm-3.58,0,3-2-1.41-4.33Z"
     transform="translate(-18.67)"
     id="path284" />
  <path
     class="cls-6"
     d="M268.43,246.89l-3.63,2.41-.17,11.85-2.44,1.63.18-11.85-3.58,2.39,0-2.38,9.63-6.43Z"
     transform="translate(-18.67)"
     id="path286" />
  <path
     class="cls-6"
     d="M272.23,256.07l-2.44,1.63.21-14.22,2.44-1.62Z"
     transform="translate(-18.67)"
     id="path288" />
  <path
     class="cls-6"
     d="M284.3,241.3a13.84,13.84,0,0,1-.67,4.09,13.18,13.18,0,0,1-1.8,3.62,10.45,10.45,0,0,1-2.65,2.62,4.36,4.36,0,0,1-2.61.9,2.06,2.06,0,0,1-1.75-1.23,6.8,6.8,0,0,1-.59-3.2v-.71a13.78,13.78,0,0,1,.69-4.11,13,13,0,0,1,1.81-3.64,10.37,10.37,0,0,1,2.64-2.61,4.27,4.27,0,0,1,2.61-.9,2.1,2.1,0,0,1,1.75,1.27,7,7,0,0,1,.57,3.26Zm-2.46,1a4.57,4.57,0,0,0-.61-3c-.44-.48-1.06-.45-1.89.1a5.35,5.35,0,0,0-1.9,2.41,10.15,10.15,0,0,0-.73,3.82v.69a4.63,4.63,0,0,0,.61,2.93c.44.51,1.07.48,1.9-.07a5.33,5.33,0,0,0,1.91-2.42,10.33,10.33,0,0,0,.71-3.82Z"
     transform="translate(-18.67)"
     id="path290" />
  <path
     class="cls-6"
     d="M295.59,240.48l-2.44,1.63-4.6-6.19-.14,9.35L286,246.9l.21-14.22,2.44-1.62,4.61,6.2.14-9.37,2.43-1.63Z"
     transform="translate(-18.67)"
     id="path292" />
  <path
     class="cls-6"
     d="M311.67,223a13.9,13.9,0,0,1-.67,4.09,13.32,13.32,0,0,1-1.8,3.62,10.45,10.45,0,0,1-2.65,2.62,4.36,4.36,0,0,1-2.61.9,2.09,2.09,0,0,1-1.75-1.23,6.82,6.82,0,0,1-.59-3.2v-.71a13.73,13.73,0,0,1,.69-4.11,13,13,0,0,1,1.81-3.64,10.53,10.53,0,0,1,2.64-2.61,4.27,4.27,0,0,1,2.62-.9,2.1,2.1,0,0,1,1.74,1.26,7.11,7.11,0,0,1,.57,3.27Zm-2.45,1a4.61,4.61,0,0,0-.62-3c-.43-.47-1.06-.44-1.88.11a5.3,5.3,0,0,0-1.91,2.41,10.11,10.11,0,0,0-.73,3.82v.69a4.55,4.55,0,0,0,.62,2.93c.43.51,1.06.48,1.9-.08a5.3,5.3,0,0,0,1.9-2.41,10.13,10.13,0,0,0,.71-3.82Z"
     transform="translate(-18.67)"
     id="path294" />
  <path
     class="cls-6"
     d="M320.55,218.07l-4.68,3.12-.09,5.81-2.44,1.63.22-14.22,7.7-5.14,0,2.37L316,215.16l-.06,3.67,4.68-3.12Z"
     transform="translate(-18.67)"
     id="path296" />
  <path
     class="cls-6"
     d="M214.21,303.5l-.14,9.36a9.41,9.41,0,0,1-1.27,4.51,10.65,10.65,0,0,1-3.34,3.57c-1.38.92-2.47,1.21-3.27.88S205,320.55,205,319l.14-9.47,2.44-1.63-.14,9.39c0,.93.16,1.48.53,1.66s.87,0,1.52-.39a4.66,4.66,0,0,0,2.13-4l.14-9.46Z"
     transform="translate(-18.67)"
     id="path298" />
  <path
     class="cls-6"
     d="M225.61,310l-2.44,1.63-4.6-6.19-.14,9.36L216,316.38l.21-14.21,2.44-1.63,4.61,6.2.14-9.37,2.43-1.62Z"
     transform="translate(-18.67)"
     id="path300" />
  <path
     class="cls-6"
     d="M237.09,297.61a10.16,10.16,0,0,1-1.46,4.55,10.93,10.93,0,0,1-3.37,3.56q-2.28,1.51-3.55.55c-.85-.65-1.26-2-1.23-4.19v-.87a13.74,13.74,0,0,1,.66-4,12.45,12.45,0,0,1,1.75-3.54,9.94,9.94,0,0,1,2.61-2.57c1.36-.91,2.46-1.21,3.28-.89s1.28,1.24,1.39,2.74l-2.44,1.63c0-.88-.25-1.4-.61-1.57s-.91,0-1.66.49a5.07,5.07,0,0,0-1.84,2.27,10.19,10.19,0,0,0-.67,3.67v1.07a5,5,0,0,0,.53,3c.38.46,1,.4,1.81-.15a5.32,5.32,0,0,0,1.7-1.75,5.48,5.48,0,0,0,.67-2.34Z"
     transform="translate(-18.67)"
     id="path302" />
  <path
     class="cls-6"
     d="M245.83,290.37l-4.68,3.12-.06,3.81,5.49-3.67,0,2.35-7.93,5.3.21-14.22,7.91-5.28,0,2.37-5.48,3.66,0,3.38,4.68-3.12Z"
     transform="translate(-18.67)"
     id="path304" />
  <path
     class="cls-6"
     d="M252.43,286.9l-1.94,1.3-.08,5.2L248,295l.21-14.22,4.39-2.93c1.4-.93,2.47-1.28,3.22-1s1.11,1,1.09,2.41a7.5,7.5,0,0,1-.56,2.78,10,10,0,0,1-1.61,2.6l2.47,4.11v.13l-2.62,1.75Zm-1.9-1.07,2-1.31a4.41,4.41,0,0,0,1.43-1.52,3.84,3.84,0,0,0,.53-1.88q0-1-.45-1.26c-.31-.18-.8,0-1.45.39l-2,1.31Z"
     transform="translate(-18.67)"
     id="path306" />
  <path
     class="cls-6"
     d="M267.27,270.43l-3.63,2.42-.17,11.84L261,286.32l.18-11.85-3.58,2.39,0-2.37,9.63-6.43Z"
     transform="translate(-18.67)"
     id="path308" />
  <path
     class="cls-6"
     d="M274.22,274.61,270,277.46l-.85,3.47-2.59,1.73,4.61-17.15,2.26-1.51,4.21,11.26L275,277Zm-3.57,0,3-2-1.41-4.33Z"
     transform="translate(-18.67)"
     id="path310" />
  <path
     class="cls-6"
     d="M281.29,272.8l-2.44,1.62.21-14.22,2.44-1.62Z"
     transform="translate(-18.67)"
     id="path312" />
  <path
     class="cls-6"
     d="M293.16,264.87l-2.43,1.63-4.61-6.19-.14,9.35-2.43,1.63.21-14.22,2.43-1.63,4.62,6.21.14-9.38,2.42-1.62Z"
     transform="translate(-18.67)"
     id="path314" />
  <path
     class="cls-6"
     d="M304.37,245.66l-3.62,2.42-.18,11.84-2.44,1.63.18-11.84-3.57,2.38,0-2.37,9.63-6.43Z"
     transform="translate(-18.67)"
     id="path316" />
  <path
     class="cls-6"
     d="M309.9,246l2.56-8.05,2.67-1.78-4,11.65-.08,5.16-2.48,1.65.08-5.15L304.88,243l2.68-1.78Z"
     transform="translate(-18.67)"
     id="path318" />
  <polygon
     class="cls-8"
     points="22.29 80.04 22.29 187.23 167.15 258.61 167.15 153.86 22.29 80.04"
     id="polygon320" />
  <a
     id="a4998"
     xlink:href="/theory/adaptive-pathways/"
     target="_top"
     xlink:show="replace">
    <polygon
       id="polygon322"
       points="312.29,171.27 167.15,258.61 167.15,153.86 312.29,66.33 "
       class="cls-2"
       style="fill:#8e8d8e" />
  </a>
  <path
     class="cls-6"
     d="M72.22,145a2.53,2.53,0,0,0-.52-1.54,13.09,13.09,0,0,0-1.87-1.92,26.9,26.9,0,0,1-2.13-2.09,7.2,7.2,0,0,1-2.14-4.65,2.48,2.48,0,0,1,.57-1.76,2,2,0,0,1,1.65-.54,6,6,0,0,1,2.42.76,9,9,0,0,1,2.4,1.81,8.56,8.56,0,0,1,1.64,2.42,6.31,6.31,0,0,1,.58,2.59l-2.59-1.36a3.21,3.21,0,0,0-.55-1.81,4,4,0,0,0-1.53-1.34,2,2,0,0,0-1.47-.32c-.35.12-.53.42-.53.92a2.46,2.46,0,0,0,.62,1.48,14,14,0,0,0,1.82,1.84A16.2,16.2,0,0,1,73.81,143a6.25,6.25,0,0,1,1,3.3c0,1.23-.41,2-1.24,2.25a4.55,4.55,0,0,1-3.32-.7,10.52,10.52,0,0,1-2.65-2,9.13,9.13,0,0,1-1.81-2.6,6.52,6.52,0,0,1-.63-2.75l2.6,1.37a4,4,0,0,0,2.49,3.66,2.09,2.09,0,0,0,1.44.33C72.05,145.81,72.22,145.5,72.22,145Z"
     transform="translate(-18.67)"
     id="path324" />
  <path
     class="cls-6"
     d="M79.33,152.46l-2.59-1.36V136.88l2.59,1.36Z"
     transform="translate(-18.67)"
     id="path326" />
  <path
     class="cls-6"
     d="M91.68,157.14a2.49,2.49,0,0,1-2,.43,8.36,8.36,0,0,1-2.84-1A9.46,9.46,0,0,1,84,154.3a10.48,10.48,0,0,1-1.9-3.34,11.86,11.86,0,0,1-.69-4v-1a7.26,7.26,0,0,1,.64-3.35,2.44,2.44,0,0,1,1.83-1.42,4.52,4.52,0,0,1,2.8.65,9.31,9.31,0,0,1,3.5,3,9,9,0,0,1,1.49,4.29l-2.52-1.32a5,5,0,0,0-.76-2.19,4.44,4.44,0,0,0-1.63-1.42c-.88-.46-1.55-.44-2,.07a4.49,4.49,0,0,0-.7,3v.91a8.56,8.56,0,0,0,.75,3.77,5,5,0,0,0,2.2,2.3c1,.51,1.67.64,2.08.39v-2.45L86.73,151v-2.16l5,2.6Z"
     transform="translate(-18.67)"
     id="path328" />
  <path
     class="cls-6"
     d="M104,165.41l-2.59-1.36-5-12v9.35L93.78,160V145.82l2.6,1.36,5.05,12v-9.37l2.58,1.35Z"
     transform="translate(-18.67)"
     id="path330" />
  <path
     class="cls-6"
     d="M108.87,163v5l-2.59-1.36V152.38l4.9,2.58a9.11,9.11,0,0,1,2.5,1.89,8.55,8.55,0,0,1,1.65,2.53,7,7,0,0,1,.58,2.76c0,1.4-.42,2.27-1.26,2.63s-2,.15-3.51-.63Zm0-2.37,2.31,1.21a1.85,1.85,0,0,0,1.57.28c.36-.18.54-.61.54-1.28a3.88,3.88,0,0,0-.54-2,3.83,3.83,0,0,0-1.51-1.45l-2.37-1.25Z"
     transform="translate(-18.67)"
     id="path332" />
  <path
     class="cls-6"
     d="M128,171.22a7.26,7.26,0,0,1-.65,3.34,2.61,2.61,0,0,1-1.88,1.46,4.45,4.45,0,0,1-2.81-.62,8.93,8.93,0,0,1-2.79-2.31,11.4,11.4,0,0,1-1.9-3.42,12.3,12.3,0,0,1-.68-4V165a7.07,7.07,0,0,1,.67-3.35,2.65,2.65,0,0,1,1.89-1.46,4.47,4.47,0,0,1,2.8.62,8.88,8.88,0,0,1,2.79,2.32,10.73,10.73,0,0,1,1.89,3.44,12.27,12.27,0,0,1,.67,4Zm-2.62-2a9,9,0,0,0-.71-3.77,4.58,4.58,0,0,0-2-2.22c-.87-.46-1.54-.43-2,.09a4.59,4.59,0,0,0-.71,3V167a9,9,0,0,0,.71,3.75,4.55,4.55,0,0,0,2,2.27c.87.46,1.54.42,2-.1a4.8,4.8,0,0,0,.71-3Z"
     transform="translate(-18.67)"
     id="path334" />
  <path
     class="cls-6"
     d="M136.43,178.69a2.53,2.53,0,0,0-.52-1.54,13.44,13.44,0,0,0-1.86-1.92,27.27,27.27,0,0,1-2.14-2.09,7.2,7.2,0,0,1-2.14-4.65,2.47,2.47,0,0,1,.57-1.76,2,2,0,0,1,1.65-.54,6,6,0,0,1,2.42.76,9,9,0,0,1,2.4,1.81,8.56,8.56,0,0,1,1.64,2.42,6.31,6.31,0,0,1,.58,2.59l-2.59-1.36a3.28,3.28,0,0,0-.54-1.81,4,4,0,0,0-1.54-1.34,2,2,0,0,0-1.47-.32c-.35.12-.53.42-.53.92a2.46,2.46,0,0,0,.62,1.48,14,14,0,0,0,1.82,1.84,16.15,16.15,0,0,1,3.22,3.55,6.31,6.31,0,0,1,1,3.31q0,1.85-1.23,2.25a4.57,4.57,0,0,1-3.33-.7,10.52,10.52,0,0,1-2.65-2A9.13,9.13,0,0,1,130,177a6.52,6.52,0,0,1-.63-2.75l2.6,1.37a4,4,0,0,0,2.49,3.65,2.06,2.06,0,0,0,1.44.34C136.26,179.51,136.43,179.2,136.43,178.69Z"
     transform="translate(-18.67)"
     id="path336" />
  <path
     class="cls-6"
     d="M150.25,177.83l-3.85-2v11.85l-2.59-1.36V174.45l-3.8-2v-2.38l10.24,5.38Z"
     transform="translate(-18.67)"
     id="path338" />
  <path
     class="cls-6"
     d="M158.11,190.07a2.59,2.59,0,0,0-.51-1.54,13.65,13.65,0,0,0-1.87-1.92,25.27,25.27,0,0,1-2.13-2.09,7.22,7.22,0,0,1-2.15-4.65,2.49,2.49,0,0,1,.58-1.76,2,2,0,0,1,1.65-.54,6,6,0,0,1,2.41.76,9.24,9.24,0,0,1,2.41,1.81,8.52,8.52,0,0,1,1.63,2.42,6.32,6.32,0,0,1,.59,2.59l-2.6-1.36a3.28,3.28,0,0,0-.54-1.81,4,4,0,0,0-1.53-1.34,2,2,0,0,0-1.48-.32c-.35.12-.52.42-.52.92a2.44,2.44,0,0,0,.61,1.48,14.67,14.67,0,0,0,1.82,1.84,16,16,0,0,1,3.23,3.56,6.25,6.25,0,0,1,1,3.3c0,1.23-.42,2-1.24,2.25a4.58,4.58,0,0,1-3.33-.7,10.66,10.66,0,0,1-2.64-2,9.37,9.37,0,0,1-1.82-2.6,6.52,6.52,0,0,1-.63-2.75l2.61,1.37a4,4,0,0,0,2.48,3.66,2.11,2.11,0,0,0,1.45.33C157.94,190.89,158.11,190.58,158.11,190.07Z"
     transform="translate(-18.67)"
     id="path340" />
  <path
     class="cls-6"
     d="M59.48,162.11l-4.54-2.39-.87,2.48-2.76-1.45L56,149l2.4,1.26,4.71,16.69-2.76-1.44Zm-3.84-4.39,3.14,1.65-1.58-6.15Z"
     transform="translate(-18.67)"
     id="path342" />
  <path
     class="cls-6"
     d="M74.51,172.93l-2.59-1.36-5-12v9.36l-2.59-1.36V153.34l2.59,1.36,5.06,12v-9.38l2.58,1.36Z"
     transform="translate(-18.67)"
     id="path344" />
  <path
     class="cls-6"
     d="M76.78,174.12V159.9l3.87,2a10,10,0,0,1,3,2.4,11.46,11.46,0,0,1,2,3.48,11,11,0,0,1,.73,3.92v.65a5.92,5.92,0,0,1-.72,3.15,2.68,2.68,0,0,1-2,1.33,5.23,5.23,0,0,1-3-.7Zm2.59-10.49v9.49l1.25.66c1,.53,1.79.56,2.33.1a3.78,3.78,0,0,0,.82-2.79v-.75a8,8,0,0,0-.8-3.7,5.41,5.41,0,0,0-2.32-2.34Z"
     transform="translate(-18.67)"
     id="path346" />
  <path
     class="cls-6"
     d="M101.63,175.32l-3.85-2v11.85l-2.59-1.36V171.93l-3.8-2v-2.37l10.24,5.37Z"
     transform="translate(-18.67)"
     id="path348" />
  <path
     class="cls-6"
     d="M107.77,185.18l-2.07-1.09v5.21l-2.59-1.36V173.72l4.68,2.45a9.31,9.31,0,0,1,3.43,2.93,6.55,6.55,0,0,1,1.21,3.81,3.33,3.33,0,0,1-.55,2.13,2,2,0,0,1-1.69.66l2.72,7.24v.14l-2.78-1.46Zm-2.07-3.46,2.09,1.1a1.68,1.68,0,0,0,1.52.23c.35-.19.53-.61.53-1.27a3.62,3.62,0,0,0-.5-1.85,3.91,3.91,0,0,0-1.55-1.39l-2.09-1.09Z"
     transform="translate(-18.67)"
     id="path350" />
  <path
     class="cls-6"
     d="M117.16,195.31,114.57,194V179.73l2.59,1.36Z"
     transform="translate(-18.67)"
     id="path352" />
  <path
     class="cls-6"
     d="M129.52,200a2.57,2.57,0,0,1-2,.43,8.18,8.18,0,0,1-2.84-1,9.58,9.58,0,0,1-2.86-2.3,10.48,10.48,0,0,1-1.9-3.34,12,12,0,0,1-.69-4v-1a7.31,7.31,0,0,1,.64-3.36,2.46,2.46,0,0,1,1.83-1.42,4.57,4.57,0,0,1,2.8.65,9.4,9.4,0,0,1,3.5,3,9.19,9.19,0,0,1,1.5,4.3L127,190.77a5.08,5.08,0,0,0-.76-2.19,4.53,4.53,0,0,0-1.63-1.42c-.88-.46-1.55-.44-2,.07a4.53,4.53,0,0,0-.7,3v.91a8.53,8.53,0,0,0,.75,3.77,5,5,0,0,0,2.2,2.3c1,.51,1.67.64,2.08.39v-2.45l-2.36-1.24v-2.16l5,2.6Z"
     transform="translate(-18.67)"
     id="path354" />
  <path
     class="cls-6"
     d="M141.57,206.32a2.53,2.53,0,0,1-2,.43,8.31,8.31,0,0,1-2.83-1,9.5,9.5,0,0,1-2.87-2.31,10.67,10.67,0,0,1-1.9-3.34,11.86,11.86,0,0,1-.69-4v-1a7.39,7.39,0,0,1,.64-3.35,2.44,2.44,0,0,1,1.83-1.42,4.55,4.55,0,0,1,2.8.64,9.42,9.42,0,0,1,3.5,3,9.11,9.11,0,0,1,1.5,4.29L139,197.1a5,5,0,0,0-.76-2.19,4.36,4.36,0,0,0-1.63-1.42q-1.32-.69-2,.06a4.6,4.6,0,0,0-.7,3v.91a8.56,8.56,0,0,0,.75,3.77,5.06,5.06,0,0,0,2.2,2.3c1,.51,1.67.64,2.09.39v-2.45l-2.36-1.24v-2.16l4.95,2.6Z"
     transform="translate(-18.67)"
     id="path356" />
  <path
     class="cls-6"
     d="M151.23,207l-5-2.61v3.81l5.84,3.06v2.36l-8.43-4.43V195l8.41,4.42v2.37l-5.82-3v3.38l5,2.62Z"
     transform="translate(-18.67)"
     id="path358" />
  <path
     class="cls-6"
     d="M158.28,211.68l-2.07-1.08v5.2l-2.59-1.36V200.23l4.67,2.45a9.18,9.18,0,0,1,3.44,2.93,6.55,6.55,0,0,1,1.21,3.81,3.27,3.27,0,0,1-.56,2.13,2,2,0,0,1-1.68.66l2.72,7.24v.14l-2.78-1.46Zm-2.07-3.45,2.09,1.09a1.67,1.67,0,0,0,1.51.24c.36-.19.54-.61.54-1.27a3.51,3.51,0,0,0-.51-1.85,3.78,3.78,0,0,0-1.55-1.39L156.21,204Z"
     transform="translate(-18.67)"
     id="path360" />
  <path
     class="cls-6"
     d="M171.43,220.06a2.61,2.61,0,0,0-.51-1.54,13.65,13.65,0,0,0-1.87-1.92,25.27,25.27,0,0,1-2.13-2.09,7.22,7.22,0,0,1-2.15-4.65,2.44,2.44,0,0,1,.58-1.76,2,2,0,0,1,1.65-.54,6,6,0,0,1,2.41.76,9,9,0,0,1,2.4,1.81,8.36,8.36,0,0,1,1.64,2.42,6.32,6.32,0,0,1,.59,2.59l-2.6-1.36a3.28,3.28,0,0,0-.54-1.81,3.94,3.94,0,0,0-1.53-1.34,2,2,0,0,0-1.48-.32c-.35.12-.53.42-.53.92a2.46,2.46,0,0,0,.62,1.48,14.67,14.67,0,0,0,1.82,1.84,15.7,15.7,0,0,1,3.22,3.56,6.18,6.18,0,0,1,1,3.3c0,1.23-.42,2-1.24,2.25a4.58,4.58,0,0,1-3.33-.7,10.48,10.48,0,0,1-2.64-2,9.17,9.17,0,0,1-1.82-2.6,6.52,6.52,0,0,1-.63-2.75L167,217a4,4,0,0,0,2.48,3.66,2.11,2.11,0,0,0,1.45.33C171.26,220.88,171.43,220.57,171.43,220.06Z"
     transform="translate(-18.67)"
     id="path362" />
  <path
     class="cls-6"
     d="M227.93,177.91l-4.27,2.85-.85,3.47-2.6,1.74,4.62-17.16,2.26-1.51,4.21,11.26-2.59,1.73Zm-3.58,0,3-2-1.41-4.33Z"
     transform="translate(-18.67)"
     id="path364" />
  <path
     class="cls-6"
     d="M232.41,177.83l.21-14.22,3.64-2.43a5.07,5.07,0,0,1,2.77-1,2.16,2.16,0,0,1,1.89,1.12,5.82,5.82,0,0,1,.64,3.08V165a12.68,12.68,0,0,1-.73,4,13.75,13.75,0,0,1-1.95,3.67,11.6,11.6,0,0,1-2.8,2.72ZM235,164.36l-.14,9.49,1.18-.79a6.37,6.37,0,0,0,2.2-2.58,9.33,9.33,0,0,0,.82-3.73V166c0-1.44-.21-2.37-.7-2.79s-1.21-.3-2.17.34Z"
     transform="translate(-18.67)"
     id="path366" />
  <path
     class="cls-6"
     d="M249.94,163.22l-4.28,2.86-.85,3.47-2.59,1.73,4.61-17.16,2.26-1.51,4.21,11.27-2.59,1.73Zm-3.58,0,2.95-2-1.4-4.33Z"
     transform="translate(-18.67)"
     id="path368" />
  <path
     class="cls-6"
     d="M256.92,156.5l-.07,5-2.44,1.63.21-14.22,4.61-3.08a5.31,5.31,0,0,1,2.34-1,1.58,1.58,0,0,1,1.53.63,3.44,3.44,0,0,1,.51,2.09,8.08,8.08,0,0,1-1.24,4.09,10.85,10.85,0,0,1-3.31,3.41Zm0-2.37,2.17-1.45a4.58,4.58,0,0,0,1.48-1.53,3.8,3.8,0,0,0,.54-1.91c0-.69-.16-1.14-.49-1.34s-.8-.11-1.4.28L257,149.67Z"
     transform="translate(-18.67)"
     id="path370" />
  <path
     class="cls-6"
     d="M274.22,138.19l-3.63,2.42-.17,11.84L268,154.08l.18-11.85-3.58,2.39,0-2.37,9.63-6.43Z"
     transform="translate(-18.67)"
     id="path372" />
  <path
     class="cls-6"
     d="M278,147.38,275.58,149l.22-14.21,2.43-1.63Z"
     transform="translate(-18.67)"
     id="path374" />
  <path
     class="cls-6"
     d="M284.7,139.43,287.54,127l2.71-1.81-4.33,17-2.54,1.7-3.89-11.48,2.71-1.81Z"
     transform="translate(-18.67)"
     id="path376" />
  <path
     class="cls-6"
     d="M298.36,127.7l-4.68,3.12-.05,3.81,5.49-3.66,0,2.35-7.93,5.29.22-14.22,7.91-5.28,0,2.37-5.47,3.66,0,3.39,4.68-3.13Z"
     transform="translate(-18.67)"
     id="path378" />
  <path
     class="cls-6"
     d="M220,203.93l-.07,5-2.44,1.62.21-14.21,4.62-3.08a5.12,5.12,0,0,1,2.33-1,1.58,1.58,0,0,1,1.53.63,3.42,3.42,0,0,1,.51,2.09,8,8,0,0,1-1.24,4.09,10.82,10.82,0,0,1-3.31,3.4Zm0-2.37,2.17-1.46a4.71,4.71,0,0,0,1.49-1.53,3.86,3.86,0,0,0,.53-1.9c0-.69-.15-1.14-.49-1.35s-.8-.11-1.4.28l-2.24,1.49Z"
     transform="translate(-18.67)"
     id="path380" />
  <path
     class="cls-6"
     d="M233.48,197l-4.28,2.85-.85,3.47L225.76,205l4.61-17.15,2.26-1.51,4.21,11.26-2.59,1.73Zm-3.58,0,2.95-2-1.41-4.33Z"
     transform="translate(-18.67)"
     id="path382" />
  <path
     class="cls-6"
     d="M246.05,179.76l-3.62,2.42L242.25,194l-2.44,1.63.18-11.84-3.57,2.38,0-2.37,9.64-6.43Z"
     transform="translate(-18.67)"
     id="path384" />
  <path
     class="cls-6"
     d="M256.89,184.25l-2.44,1.63.09-6.09L249.79,183l-.09,6.09-2.44,1.63.22-14.22,2.43-1.63-.08,5.76,4.75-3.17.08-5.76L257.1,170Z"
     transform="translate(-18.67)"
     id="path386" />
  <path
     class="cls-6"
     d="M268.29,172.58,270,161.4l2.43-1.62-2.84,16-2.45,1.64-1.78-8.23L263.32,180l-2.45,1.63-2.41-12.46,2.43-1.62,1.44,9,2.11-11.4,2.06-1.38Z"
     transform="translate(-18.67)"
     id="path388" />
  <path
     class="cls-6"
     d="M279.93,166l-4.27,2.85-.85,3.47L272.22,174l4.61-17.15,2.26-1.51,4.21,11.26-2.59,1.73Zm-3.57,0,2.95-2-1.41-4.32Z"
     transform="translate(-18.67)"
     id="path390" />
  <path
     class="cls-6"
     d="M287.38,156.16l2.56-8,2.66-1.77-4,11.65-.08,5.16L286,164.8l.08-5.16-3.75-6.47,2.67-1.78Z"
     transform="translate(-18.67)"
     id="path392" />
  <path
     class="cls-6"
     d="M299.53,152.1c0-.56-.15-.87-.47-.95a4.1,4.1,0,0,0-1.74.23,8.81,8.81,0,0,1-2,.37c-1.33,0-2-.71-2-2.18a6.21,6.21,0,0,1,.57-2.42,9.84,9.84,0,0,1,1.57-2.45,11.47,11.47,0,0,1,2.28-2,5.22,5.22,0,0,1,2.25-1,1.58,1.58,0,0,1,1.51.53,2.84,2.84,0,0,1,.52,1.92l-2.44,1.62c0-.65-.15-1-.49-1.17s-.81,0-1.43.41a4.81,4.81,0,0,0-1.39,1.38,3,3,0,0,0-.52,1.53c0,.46.18.72.57.77a4.14,4.14,0,0,0,1.69-.26,4.23,4.23,0,0,1,3-.15c.62.31.92,1,.91,2.13a7,7,0,0,1-1.21,3.67,10.68,10.68,0,0,1-3.14,3.14,6,6,0,0,1-2.48,1.06,1.78,1.78,0,0,1-1.68-.5,2.93,2.93,0,0,1-.56-2l2.45-1.63q0,2.35,2.3.79a4.8,4.8,0,0,0,1.36-1.33A2.84,2.84,0,0,0,299.53,152.1Z"
     transform="translate(-18.67)"
     id="path394" />
  <a
     id="a5007"
     xlink:href="/theory/robustness-metrics/"
     target="_top">
    <polygon
       id="polygon396"
       points="167.15,468.4 167.15,363.65 22.29,289.83 22.29,397.02 "
       class="cls-1"
       style="fill:#686769" />
  </a>
  <a
     id="a5004"
     target="_top"
     xlink:href="/theory/vulnerability-analysis/">
    <polygon
       id="polygon398"
       points="312.29,381.06 167.15,468.4 167.15,363.65 312.29,276.12 "
       class="cls-3"
       style="fill:#424143" />
  </a>
  <path
     class="cls-6"
     d="M62.5,348.21l-2.06-1.08v5.2L57.85,351V336.75l4.67,2.46A9.32,9.32,0,0,1,66,342.13a6.58,6.58,0,0,1,1.21,3.81,3.38,3.38,0,0,1-.56,2.14,2,2,0,0,1-1.69.66L67.64,356v.13l-2.78-1.46Zm-2.06-3.46,2.09,1.1a1.66,1.66,0,0,0,1.51.23c.36-.18.54-.61.54-1.26a3.51,3.51,0,0,0-.51-1.85,3.78,3.78,0,0,0-1.55-1.39l-2.08-1.09Z"
     transform="translate(-18.67)"
     id="path400" />
  <path
     class="cls-6"
     d="M79.47,355.53a7.26,7.26,0,0,1-.65,3.34,2.61,2.61,0,0,1-1.88,1.46,4.45,4.45,0,0,1-2.81-.62,8.93,8.93,0,0,1-2.79-2.31,11.19,11.19,0,0,1-1.9-3.42,12.3,12.3,0,0,1-.68-4v-.7a7.07,7.07,0,0,1,.67-3.35,2.65,2.65,0,0,1,1.89-1.46,4.47,4.47,0,0,1,2.8.62,9,9,0,0,1,2.79,2.32,10.73,10.73,0,0,1,1.89,3.44,12.27,12.27,0,0,1,.67,4Zm-2.62-2a9,9,0,0,0-.71-3.77,4.58,4.58,0,0,0-2-2.22c-.87-.46-1.55-.43-2,.09a4.59,4.59,0,0,0-.71,3v.69a9.13,9.13,0,0,0,.7,3.75,4.61,4.61,0,0,0,2,2.27c.87.46,1.54.42,2-.1a4.8,4.8,0,0,0,.71-3Z"
     transform="translate(-18.67)"
     id="path402" />
  <path
     class="cls-6"
     d="M81.36,363.31V349.09l4.4,2.31a9.74,9.74,0,0,1,3.47,2.82,5.82,5.82,0,0,1,1.19,3.52,2.37,2.37,0,0,1-.48,1.6,1.47,1.47,0,0,1-1.32.47,5.54,5.54,0,0,1,1.53,1.9A5.21,5.21,0,0,1,90.7,364c0,1.36-.38,2.2-1.15,2.49s-1.88.08-3.3-.65Zm2.59-6.9,1.92,1c1.3.66,2,.42,2-.73a2.77,2.77,0,0,0-.5-1.66,4.4,4.4,0,0,0-1.57-1.24l-1.81-1Zm0,2.07v3.84l2.22,1.16a1.73,1.73,0,0,0,1.43.26c.34-.15.51-.51.51-1.09a3.13,3.13,0,0,0-1.79-2.93Z"
     transform="translate(-18.67)"
     id="path404" />
  <path
     class="cls-6"
     d="M102.17,360v9.37c0,1.55-.43,2.56-1.29,3s-2,.29-3.53-.49a9.06,9.06,0,0,1-3.5-3.16,7.83,7.83,0,0,1-1.32-4.31V355l2.59,1.36v9.39a4.43,4.43,0,0,0,.59,2.35,4.15,4.15,0,0,0,1.64,1.49c1.45.77,2.19.29,2.22-1.43v-9.46Z"
     transform="translate(-18.67)"
     id="path406" />
  <path
     class="cls-6"
     d="M110.82,375a2.58,2.58,0,0,0-.52-1.55,14.28,14.28,0,0,0-1.87-1.91,25.27,25.27,0,0,1-2.13-2.09,7.24,7.24,0,0,1-2.14-4.65,2.47,2.47,0,0,1,.57-1.76,2,2,0,0,1,1.65-.54,5.88,5.88,0,0,1,2.42.76,9.36,9.36,0,0,1,2.4,1.81,8.32,8.32,0,0,1,1.63,2.42,6.29,6.29,0,0,1,.59,2.59l-2.59-1.36a3.19,3.19,0,0,0-.55-1.81,3.94,3.94,0,0,0-1.53-1.34,2,2,0,0,0-1.48-.32c-.35.11-.52.42-.52.92a2.42,2.42,0,0,0,.62,1.48,13.83,13.83,0,0,0,1.81,1.84,16.23,16.23,0,0,1,3.23,3.55,6.31,6.31,0,0,1,1,3.31c0,1.23-.41,2-1.24,2.24a4.49,4.49,0,0,1-3.32-.69,10.52,10.52,0,0,1-2.65-2,9.52,9.52,0,0,1-1.82-2.6,6.69,6.69,0,0,1-.62-2.75l2.6,1.36a4,4,0,0,0,2.49,3.66,2,2,0,0,0,1.44.34C110.65,375.85,110.82,375.55,110.82,375Z"
     transform="translate(-18.67)"
     id="path408" />
  <path
     class="cls-6"
     d="M124.64,374.18l-3.85-2V384l-2.59-1.36V370.8l-3.81-2v-2.37l10.25,5.38Z"
     transform="translate(-18.67)"
     id="path410" />
  <path
     class="cls-6"
     d="M136.35,392.17l-2.59-1.36-5-12v9.35l-2.59-1.36V372.58l2.59,1.36,5,12v-9.38l2.59,1.36Z"
     transform="translate(-18.67)"
     id="path412" />
  <path
     class="cls-6"
     d="M146.18,391.17l-5-2.61v3.8l5.84,3.07v2.35l-8.43-4.42V379.14l8.42,4.42v2.37l-5.83-3.06v3.39l5,2.61Z"
     transform="translate(-18.67)"
     id="path414" />
  <path
     class="cls-6"
     d="M155.09,398.27a2.62,2.62,0,0,0-.52-1.54,13.65,13.65,0,0,0-1.87-1.92,25.27,25.27,0,0,1-2.13-2.09,7.2,7.2,0,0,1-2.14-4.65,2.44,2.44,0,0,1,.57-1.75,2,2,0,0,1,1.65-.55,6,6,0,0,1,2.41.76,9.46,9.46,0,0,1,2.41,1.81,8.32,8.32,0,0,1,1.63,2.42,6.32,6.32,0,0,1,.59,2.59L155.1,392a3.23,3.23,0,0,0-.55-1.8,4,4,0,0,0-1.53-1.35,2,2,0,0,0-1.47-.32c-.36.12-.53.42-.53.92a2.45,2.45,0,0,0,.62,1.49,13.84,13.84,0,0,0,1.81,1.83,16,16,0,0,1,3.23,3.56,6.25,6.25,0,0,1,1,3.3c0,1.23-.41,2-1.24,2.25a4.55,4.55,0,0,1-3.32-.7,10.52,10.52,0,0,1-2.65-2,9.23,9.23,0,0,1-1.82-2.6,6.66,6.66,0,0,1-.62-2.75l2.6,1.37a4,4,0,0,0,2.49,3.66,2.08,2.08,0,0,0,1.44.33C154.91,399.09,155.09,398.78,155.09,398.27Z"
     transform="translate(-18.67)"
     id="path416" />
  <path
     class="cls-6"
     d="M166,404a2.59,2.59,0,0,0-.51-1.54,13.65,13.65,0,0,0-1.87-1.92,25.27,25.27,0,0,1-2.13-2.09,7.22,7.22,0,0,1-2.15-4.65,2.43,2.43,0,0,1,.58-1.76,2,2,0,0,1,1.65-.54,6,6,0,0,1,2.41.76,9,9,0,0,1,2.4,1.81,8.36,8.36,0,0,1,1.64,2.42,6.31,6.31,0,0,1,.58,2.59L166,397.7a3.28,3.28,0,0,0-.54-1.81,3.94,3.94,0,0,0-1.53-1.34,2,2,0,0,0-1.48-.32c-.35.12-.52.42-.52.92a2.44,2.44,0,0,0,.61,1.48,14,14,0,0,0,1.82,1.84,15.9,15.9,0,0,1,3.22,3.55,6.22,6.22,0,0,1,1,3.31q0,1.85-1.23,2.25a4.58,4.58,0,0,1-3.33-.7,10.48,10.48,0,0,1-2.64-2,9.17,9.17,0,0,1-1.82-2.6,6.52,6.52,0,0,1-.63-2.75l2.61,1.37a4,4,0,0,0,2.48,3.65,2.07,2.07,0,0,0,1.45.34C165.79,404.8,166,404.49,166,404Z"
     transform="translate(-18.67)"
     id="path418" />
  <path
     class="cls-6"
     d="M79.73,371.24l3.23,12,3.22-8.63,3.4,1.79v14.22L87,389.26v-3.89l.26-6.57-3.4,8.82-1.78-.94-3.38-12.36.26,6.83V385l-2.59-1.36V369.46Z"
     transform="translate(-18.67)"
     id="path420" />
  <path
     class="cls-6"
     d="M99.41,389.62l-5-2.61v3.81l5.84,3.07v2.35l-8.43-4.43V377.6l8.41,4.41v2.37l-5.82-3.05v3.39l5,2.61Z"
     transform="translate(-18.67)"
     id="path422" />
  <path
     class="cls-6"
     d="M111.44,390.25l-3.85-2v11.85l-2.6-1.37V386.87l-3.8-2V382.5l10.25,5.38Z"
     transform="translate(-18.67)"
     id="path424" />
  <path
     class="cls-6"
     d="M117.57,400.11,115.51,399v5.2l-2.59-1.36V388.65l4.67,2.46A9.25,9.25,0,0,1,121,394a6.55,6.55,0,0,1,1.21,3.8,3.36,3.36,0,0,1-.56,2.14,2,2,0,0,1-1.69.66l2.72,7.24V408l-2.78-1.46Zm-2.06-3.45,2.09,1.09a1.66,1.66,0,0,0,1.51.23q.54-.27.54-1.26a3.51,3.51,0,0,0-.51-1.85,3.78,3.78,0,0,0-1.55-1.39l-2.08-1.09Z"
     transform="translate(-18.67)"
     id="path426" />
  <path
     class="cls-6"
     d="M127,410.25l-2.59-1.36V394.67L127,396Z"
     transform="translate(-18.67)"
     id="path428" />
  <path
     class="cls-6"
     d="M139.24,412c-.1,1.48-.6,2.42-1.5,2.83s-2.09.22-3.56-.55a9.16,9.16,0,0,1-3.81-3.84,12,12,0,0,1-1.38-5.78v-.87a7.09,7.09,0,0,1,.64-3.28,2.49,2.49,0,0,1,1.82-1.44,4.37,4.37,0,0,1,2.76.62,9.22,9.22,0,0,1,3.51,3.16,9.42,9.42,0,0,1,1.54,4.5l-2.59-1.36a5,5,0,0,0-.68-2.35,4.49,4.49,0,0,0-1.78-1.55c-.86-.45-1.51-.44-1.94,0a4.69,4.69,0,0,0-.66,2.91v1.07a9.28,9.28,0,0,0,.62,3.7,4.2,4.2,0,0,0,2,2.08c.8.42,1.4.53,1.79.33s.62-.73.68-1.57Z"
     transform="translate(-18.67)"
     id="path430" />
  <path
     class="cls-6"
     d="M147.47,417.28a2.56,2.56,0,0,0-.52-1.55,13.65,13.65,0,0,0-1.87-1.92,26.9,26.9,0,0,1-2.13-2.09,7.2,7.2,0,0,1-2.14-4.65,2.44,2.44,0,0,1,.57-1.75,2,2,0,0,1,1.65-.55,6,6,0,0,1,2.42.76,9.59,9.59,0,0,1,2.4,1.81,8.46,8.46,0,0,1,1.63,2.42,6.32,6.32,0,0,1,.59,2.59L147.48,411a3.15,3.15,0,0,0-.55-1.8,4,4,0,0,0-1.53-1.35,2,2,0,0,0-1.47-.32c-.36.12-.53.43-.53.92a2.45,2.45,0,0,0,.62,1.49,13.26,13.26,0,0,0,1.81,1.83,16.25,16.25,0,0,1,3.23,3.56,6.25,6.25,0,0,1,1,3.3c0,1.23-.41,2-1.24,2.25a4.55,4.55,0,0,1-3.32-.7,10.52,10.52,0,0,1-2.65-2,9.23,9.23,0,0,1-1.82-2.6,6.66,6.66,0,0,1-.62-2.75l2.6,1.37a4,4,0,0,0,2.49,3.66,2.08,2.08,0,0,0,1.44.33C147.3,418.09,147.47,417.78,147.47,417.28Z"
     transform="translate(-18.67)"
     id="path432" />
  <path
     class="cls-6"
     d="M203.4,403.49,206.24,391,209,389.2l-4.33,17-2.54,1.7-3.89-11.48,2.71-1.81Z"
     transform="translate(-18.67)"
     id="path434" />
  <path
     class="cls-6"
     d="M219,382.48l-.14,9.36a9.34,9.34,0,0,1-1.27,4.5,10.59,10.59,0,0,1-3.34,3.58q-2.07,1.38-3.27.87c-.8-.33-1.2-1.27-1.19-2.79l.14-9.47,2.44-1.63-.14,9.39c0,.93.16,1.48.52,1.66s.88.05,1.53-.39a4.64,4.64,0,0,0,2.13-4l.14-9.46Z"
     transform="translate(-18.67)"
     id="path436" />
  <path
     class="cls-6"
     d="M223.27,391.38l5.18-3.45,0,2.35-7.61,5.08.21-14.22,2.44-1.62Z"
     transform="translate(-18.67)"
     id="path438" />
  <path
     class="cls-6"
     d="M239.43,382.93,237,384.56l-4.6-6.19-.14,9.35-2.44,1.63.21-14.22,2.44-1.63,4.61,6.21.14-9.38,2.43-1.62Z"
     transform="translate(-18.67)"
     id="path440" />
  <path
     class="cls-6"
     d="M248.76,370.6l-4.68,3.12-.05,3.81,5.49-3.67,0,2.36-7.92,5.29.21-14.22,7.91-5.28,0,2.37L244.17,368l0,3.39,4.68-3.13Z"
     transform="translate(-18.67)"
     id="path442" />
  <path
     class="cls-6"
     d="M255.37,367.14l-1.94,1.29-.08,5.21-2.44,1.62.21-14.21,4.4-2.94c1.39-.93,2.47-1.27,3.21-1s1.11,1,1.09,2.41a7.5,7.5,0,0,1-.56,2.78,9.93,9.93,0,0,1-1.61,2.61l2.47,4.1v.13l-2.61,1.75Zm-1.91-1.08,2-1.31a4.57,4.57,0,0,0,1.43-1.51,3.9,3.9,0,0,0,.52-1.89q0-1-.45-1.26c-.31-.17-.79,0-1.45.39l-2,1.31Z"
     transform="translate(-18.67)"
     id="path444" />
  <path
     class="cls-6"
     d="M268.25,360.79,264,363.64l-.86,3.47-2.59,1.73,4.61-17.15,2.26-1.51,4.22,11.26-2.6,1.73Zm-3.58,0,3-2-1.41-4.33Z"
     transform="translate(-18.67)"
     id="path446" />
  <path
     class="cls-6"
     d="M272.72,360.7l.21-14.21,4.14-2.77c1.44-1,2.52-1.35,3.25-1.19s1.09.89,1.08,2.17a5.89,5.89,0,0,1-.48,2.14,7.44,7.44,0,0,1-1.26,2,1.3,1.3,0,0,1,1.42.15,2.21,2.21,0,0,1,.49,1.68,7.4,7.4,0,0,1-1.13,3.83,10.61,10.61,0,0,1-3.12,3.15Zm2.53-7.81-.06,3.83,2.09-1.39a4.36,4.36,0,0,0,1.35-1.39,3.18,3.18,0,0,0,.5-1.68c0-1.3-.53-1.59-1.65-.86Zm0-2.07,1.8-1.21a3.66,3.66,0,0,0,1.87-3c0-.65-.14-1-.44-1.08s-.8.11-1.47.55l-1.71,1.14Z"
     transform="translate(-18.67)"
     id="path448" />
  <path
     class="cls-6"
     d="M285.93,351.89l-2.44,1.62.21-14.21,2.44-1.63Z"
     transform="translate(-18.67)"
     id="path450" />
  <path
     class="cls-6"
     d="M290.66,346.4l5.17-3.45,0,2.35-7.61,5.08.21-14.21,2.43-1.63Z"
     transform="translate(-18.67)"
     id="path452" />
  <path
     class="cls-6"
     d="M299.78,342.64l-2.43,1.63.21-14.22,2.44-1.63Z"
     transform="translate(-18.67)"
     id="path454" />
  <path
     class="cls-6"
     d="M311.12,323.34l-3.62,2.42-.18,11.85-2.44,1.62.18-11.84-3.57,2.38,0-2.37,9.64-6.43Z"
     transform="translate(-18.67)"
     id="path456" />
  <path
     class="cls-6"
     d="M316.66,323.64l2.55-8.05,2.67-1.77-4,11.65-.08,5.15-2.47,1.66.07-5.16-3.75-6.47,2.68-1.78Z"
     transform="translate(-18.67)"
     id="path458" />
  <path
     class="cls-6"
     d="M229.08,409.71l-4.28,2.85L224,416l-2.59,1.73L226,400.6l2.26-1.5,4.21,11.26-2.59,1.73Zm-3.58,0,2.95-2-1.4-4.33Z"
     transform="translate(-18.67)"
     id="path460" />
  <path
     class="cls-6"
     d="M243.17,403.2l-2.44,1.63-4.6-6.19L236,408l-2.44,1.62.21-14.22,2.44-1.62,4.61,6.2.14-9.37,2.43-1.62Z"
     transform="translate(-18.67)"
     id="path462" />
  <path
     class="cls-6"
     d="M252,394.4l-4.27,2.85-.85,3.47-2.6,1.73,4.62-17.16,2.26-1.5,4.21,11.26-2.59,1.73Zm-3.57,0,2.95-2L250,388.13Z"
     transform="translate(-18.67)"
     id="path464" />
  <path
     class="cls-6"
     d="M259,390.33l5.17-3.45,0,2.35-7.61,5.08.21-14.22,2.44-1.62Z"
     transform="translate(-18.67)"
     id="path466" />
  <path
     class="cls-6"
     d="M267.42,379.28l2.56-8,2.66-1.78-4,11.65-.07,5.16-2.48,1.65.08-5.15-3.75-6.47,2.67-1.79Z"
     transform="translate(-18.67)"
     id="path468" />
  <path
     class="cls-6"
     d="M279.57,375.21c0-.55-.15-.87-.47-.95a4.1,4.1,0,0,0-1.74.23,8.28,8.28,0,0,1-2,.37c-1.33,0-2-.7-2-2.18a6.25,6.25,0,0,1,.57-2.42,9.8,9.8,0,0,1,1.57-2.44,11.17,11.17,0,0,1,2.28-2,5.14,5.14,0,0,1,2.25-1,1.6,1.6,0,0,1,1.51.53,2.88,2.88,0,0,1,.52,1.92l-2.44,1.63c0-.66-.15-1.05-.49-1.18s-.81,0-1.43.42a4.57,4.57,0,0,0-1.39,1.38,2.89,2.89,0,0,0-.52,1.52c0,.47.18.72.57.78a4.52,4.52,0,0,0,1.69-.26,4.25,4.25,0,0,1,3-.16c.62.32.92,1,.9,2.14a6.89,6.89,0,0,1-1.2,3.67,10.89,10.89,0,0,1-3.14,3.13,5.91,5.91,0,0,1-2.48,1.06,1.78,1.78,0,0,1-1.68-.5,2.92,2.92,0,0,1-.56-2l2.45-1.63q0,2.36,2.3.79a4.67,4.67,0,0,0,1.36-1.33A2.82,2.82,0,0,0,279.57,375.21Z"
     transform="translate(-18.67)"
     id="path470" />
  <path
     class="cls-6"
     d="M286.2,374.48l-2.44,1.62.21-14.21,2.44-1.63Z"
     transform="translate(-18.67)"
     id="path472" />
  <path
     class="cls-6"
     d="M294.64,365.15c0-.56-.14-.87-.46-.95a4.09,4.09,0,0,0-1.74.23,8.35,8.35,0,0,1-2,.37c-1.33,0-2-.71-2-2.18a6.25,6.25,0,0,1,.57-2.42,9.84,9.84,0,0,1,1.57-2.45,11.47,11.47,0,0,1,2.28-2,5.32,5.32,0,0,1,2.25-1,1.59,1.59,0,0,1,1.52.53,2.9,2.9,0,0,1,.51,1.92l-2.43,1.62c0-.65-.16-1-.49-1.17s-.82,0-1.43.41a4.85,4.85,0,0,0-1.4,1.38,3,3,0,0,0-.51,1.53c0,.46.18.72.56.77a4.18,4.18,0,0,0,1.7-.26,4.26,4.26,0,0,1,3-.15c.62.31.93,1,.91,2.14a6.9,6.9,0,0,1-1.21,3.67,10.76,10.76,0,0,1-3.14,3.13,6,6,0,0,1-2.48,1.06,1.78,1.78,0,0,1-1.68-.5,2.93,2.93,0,0,1-.55-2l2.44-1.63q0,2.35,2.31.79a4.8,4.8,0,0,0,1.36-1.33A2.74,2.74,0,0,0,294.64,365.15Z"
     transform="translate(-18.67)"
     id="path474" />
  <a
     id="a5039"
     xlink:href="/theory/exploratory-modelling/"
     target="_top"
     style="opacity:0;fill:#8e8d8e;fill-opacity:1;stroke:none">
    <path
       inkscape:connector-curvature="0"
       id="path5037"
       d="m 17.42,543.64 -9.09,129.62 159.38,88.9 4.42,-139.71 z"
       style="fill:#8e8d8e;fill-opacity:1;stroke:none;stroke-width:1px;stroke-linecap:butt;stroke-linejoin:miter;stroke-opacity:1" />
  </a>
  <a
     id="a5044"
     xlink:href="/theory/scenario-development/"
     target="_top"
     style="fill:#8e8d8e;fill-opacity:1;stroke:none;opacity:0">
    <path
       inkscape:connector-curvature="0"
       id="path5042"
       d="M 188.18,621.35 183.85,758 318.96,644.78 304.13,517.3 188.18,621.35"
       style="fill:#8e8d8e;fill-opacity:1;stroke:none;stroke-width:1px;stroke-linecap:butt;stroke-linejoin:miter;stroke-opacity:1" />
  </a>
  <a
     id="a5049"
     xlink:href="/theory/multiple-plausible-futures/"
     target="_top"
     style="fill:#8e8d8e;fill-opacity:1;opacity:0;stroke:none">
    <path
       inkscape:connector-curvature="0"
       id="path5047"
       d="M 187.65924,599.56732 175.03,462.47 297.75266,389.38898 295.72,503.35 Z"
       style="fill:#8e8d8e;fill-opacity:1;stroke:none;stroke-width:1px;stroke-linecap:butt;stroke-linejoin:miter;stroke-opacity:1" />
  </a>
  <a
     id="a5054"
     xlink:href="/theory/stress-testing/"
     target="_top"
     style="opacity:0">
    <path
       inkscape:connector-curvature="0"
       id="path5052"
       d="M 27.86,530.97 159.2,463.03 171.39544,603.73753 Z"
       style="fill:#8e8d8e;fill-opacity:1;stroke:none;stroke-width:1px;stroke-linecap:butt;stroke-linejoin:miter;stroke-opacity:1" />
  </a>
  <a
     id="a5059"
     xlink:href="/theory/signposts/"
     target="_top"
     style="opacity:0">
    <path
       inkscape:connector-curvature="0"
       id="path5057"
       d="M 21.685067,139.17666 165.97417,209.23611 167.15,153.86 22.29,80.04 Z"
       style="fill:#8e8d8e;fill-opacity:1;stroke:none;stroke-width:1px;stroke-linecap:butt;stroke-linejoin:miter;stroke-opacity:1" />
  </a>
  <a
     id="a5064"
     xlink:href="/theory/triggers/"
     target="_top"
     style="opacity:0">
    <path
       inkscape:connector-curvature="0"
       id="path5062"
       d="M 22.29,187.23 21.685067,139.17666 165.97417,209.23611 167.15,258.69 22.29,187.23"
       style="fill:#8e8d8e;fill-opacity:1;stroke:none;stroke-width:1px;stroke-linecap:butt;stroke-linejoin:miter;stroke-opacity:1" />
  </a>
  <a
     id="a5069"
     xlink:href="/theory/robust-decisions/"
     target="_top"
     style="stroke:none;opacity:0">
    <path
       inkscape:connector-curvature="0"
       id="path5067"
       d="M 243.95701,106.23204 104.67215,30.751324 159.79,0 312.29,66.33 Z"
       style="fill:#8e8d8e;fill-opacity:1;stroke:none;stroke-width:1px;stroke-linecap:butt;stroke-linejoin:miter;stroke-opacity:1" />
  </a>
  <a
     id="a5074"
     xlink:href="/theory/adaptive-decisions/"
     target="_top"
     style="fill:#8e8d8e;fill-opacity:1;opacity:0">
    <path
       inkscape:connector-curvature="0"
       id="path5072"
       d="M 167.15,153.86 243.95701,106.23204 104.67215,30.751324 22.29,80.08 167.15,153.86"
       style="fill:#8e8d8e;fill-opacity:1;stroke:none;stroke-width:1px;stroke-linecap:butt;stroke-linejoin:miter;stroke-opacity:1" />
  </a>
</svg>
